{"glyphs":{"#":{"ha":1100,"x_min":0,"x_max":0,"o":"m 400 693 b 272 689 358 693 315 690 b 221 672 254 688 236 682 b 196 633 206 664 199 650 b 203 594 194 619 199 607 b 215 578 204 588 210 582 b 236 567 222 574 229 569 b 281 558 250 563 265 558 b 365 558 308 558 338 558 b 382 557 371 558 376 557 b 382 550 382 554 382 551 b 319 407 374 528 326 418 b 247 403 296 406 271 403 b 125 394 206 401 165 400 b 88 368 108 392 96 383 b 71 322 81 353 75 338 b 69 308 69 318 69 313 b 88 281 69 294 76 285 b 111 275 96 276 103 276 b 129 274 117 275 124 276 b 188 268 149 267 168 267 b 250 268 208 268 229 268 b 261 265 254 268 257 267 b 250 240 257 257 254 249 b 221 179 240 219 231 200 b 186 103 208 154 197 128 b 174 76 182 93 178 85 b 161 47 169 67 165 57 b 165 13 157 35 158 24 b 201 -11 175 1 186 -8 b 263 6 225 -17 244 -10 b 289 35 272 14 281 24 b 342 135 308 67 329 99 b 346 144 342 139 344 142 b 392 251 361 181 376 215 b 403 274 394 258 396 267 b 413 275 406 275 410 275 b 540 275 456 275 499 275 b 546 274 542 275 543 274 b 540 260 543 268 542 264 b 485 144 522 221 503 182 b 464 94 476 128 468 111 b 443 25 457 71 450 49 b 440 13 442 21 442 17 b 457 -15 440 0 446 -8 b 476 -19 463 -18 469 -19 b 506 -19 486 -19 496 -19 b 567 19 535 -19 554 -6 b 572 32 569 24 571 28 b 588 67 578 44 582 56 b 604 103 593 79 599 92 b 678 263 629 156 653 210 b 685 275 679 267 682 271 b 706 275 692 275 699 275 b 790 275 735 275 763 275 b 853 285 811 275 832 279 b 894 304 868 289 882 294 b 913 340 906 313 914 325 b 914 353 913 344 913 349 b 910 379 917 363 914 371 b 889 399 904 388 897 394 b 844 408 875 406 860 410 b 789 404 826 408 807 407 b 740 407 774 401 757 404 b 746 421 742 413 743 417 b 808 558 767 467 788 513 b 815 568 810 561 813 564 b 863 569 831 568 847 569 b 947 575 892 569 919 572 b 978 581 957 576 968 578 b 1003 590 986 583 996 586 b 1021 663 1029 604 1039 633 b 975 692 1010 681 993 689 b 935 697 961 694 949 696 b 885 697 918 697 901 697 b 875 701 881 697 878 697 b 885 726 878 710 881 718 b 931 831 900 761 915 794 b 947 883 938 847 944 865 b 936 925 951 900 946 913 b 910 936 929 932 921 936 b 835 904 881 935 854 928 b 815 875 826 894 821 885 b 796 836 808 863 803 850 b 764 764 785 813 772 789 b 740 710 757 746 749 728 b 732 697 739 706 735 701 b 597 697 688 697 642 697 b 592 700 596 697 594 699 b 594 708 593 703 593 706 b 614 761 601 726 608 743 b 657 885 629 803 639 844 b 660 901 658 890 660 896 b 636 936 663 921 656 931 b 614 943 628 939 621 940 b 556 936 593 953 574 947 b 525 897 540 928 531 914 b 507 850 519 882 514 865 b 468 756 494 818 481 786 b 443 697 460 736 451 717 b 400 693 429 693 414 693 z m 671 565 b 675 563 672 565 674 564 b 608 410 656 511 632 460 b 597 408 604 408 601 408 b 469 407 556 407 513 407 b 464 408 468 407 465 408 b 464 413 464 410 464 411 b 528 561 485 463 507 511 b 671 565 576 563 624 564 z "},"%":{"ha":825,"x_min":0,"x_max":0,"o":"m 143 -19 b 179 -37 154 -29 165 -35 b 203 -37 188 -40 194 -39 b 236 -12 217 -33 228 -25 b 260 24 244 -1 253 11 b 293 94 271 47 282 71 b 351 219 313 136 331 179 b 429 383 379 274 404 329 b 519 569 458 446 489 507 b 604 738 546 626 575 682 b 644 821 619 764 632 793 b 663 861 651 833 657 847 b 669 879 664 867 667 872 b 676 931 675 896 679 913 b 663 957 675 942 671 951 b 610 972 647 969 629 974 b 564 942 589 969 574 960 b 557 929 561 938 558 933 b 500 836 540 897 519 867 b 481 806 493 826 486 815 b 468 779 476 797 471 789 b 451 740 464 765 457 753 b 428 696 443 726 435 711 b 335 513 397 635 365 574 b 250 332 306 453 278 392 b 208 238 235 300 221 269 b 158 124 192 200 175 163 b 136 72 151 107 143 89 b 124 18 129 56 125 39 b 143 -19 122 4 129 -8 z m 310 878 b 265 943 300 904 286 926 b 171 971 238 965 206 974 b 79 925 135 968 104 953 b 24 774 42 882 26 831 b 38 651 22 733 29 692 b 63 589 43 629 50 608 b 117 536 75 567 93 547 b 154 522 129 531 142 526 b 278 554 201 507 243 518 b 314 626 296 575 307 600 b 321 661 315 639 318 650 b 332 750 328 692 333 722 b 310 878 333 796 325 838 z m 218 694 b 186 660 215 675 203 665 b 151 672 169 654 161 657 b 139 711 144 683 140 697 b 144 804 135 742 133 774 b 158 831 149 813 153 822 b 168 843 160 835 164 839 b 189 844 175 849 182 849 b 208 822 197 839 204 831 b 226 747 222 801 228 778 b 218 694 226 733 221 714 z m 779 357 b 733 422 769 382 756 404 b 639 449 707 443 675 451 b 549 403 603 446 572 431 b 493 253 511 360 496 308 b 507 129 490 211 497 169 b 531 67 511 108 519 86 b 586 14 544 44 561 25 b 624 0 599 10 610 4 b 746 32 671 -15 713 -4 b 782 104 764 53 776 78 b 789 140 785 117 786 128 b 800 228 796 169 801 200 b 779 357 801 275 793 317 z m 686 172 b 654 138 683 153 671 144 b 621 150 638 132 629 136 b 607 189 613 163 608 175 b 614 282 603 221 601 251 b 626 308 617 292 621 300 b 638 321 629 314 633 318 b 658 322 643 328 650 328 b 678 301 667 317 672 310 b 694 225 690 279 696 256 b 686 172 694 211 689 192 z "},"&":{"ha":788,"x_min":0,"x_max":0,"o":"m 340 754 b 406 753 363 754 385 754 b 588 750 467 753 528 751 b 635 764 606 749 621 754 b 649 793 644 771 650 781 b 649 863 649 817 647 840 b 650 882 650 869 650 875 b 642 901 650 889 647 896 b 599 921 631 915 615 921 b 457 928 551 924 504 925 b 415 926 443 928 429 926 b 274 922 368 925 321 924 b 260 921 269 922 264 922 b 215 917 244 919 231 918 b 207 917 213 917 210 917 b 181 906 194 921 186 915 b 169 881 176 897 172 889 b 156 836 164 865 160 851 b 153 768 149 814 146 792 b 165 728 157 754 160 742 b 229 572 186 676 208 625 b 238 550 232 565 235 558 b 219 546 231 549 225 547 b 132 504 186 540 158 525 b 89 460 115 492 101 476 b 32 338 61 424 42 383 b 29 235 25 304 25 269 b 44 167 32 213 36 189 b 133 46 63 119 94 79 b 183 15 149 33 165 22 b 276 -3 214 4 244 -3 b 361 10 306 -1 333 3 b 467 56 399 21 433 38 b 478 61 471 57 474 58 b 493 33 483 51 489 43 b 549 -51 510 4 528 -25 b 601 -107 564 -72 581 -92 b 615 -115 606 -110 610 -114 b 654 -125 628 -119 642 -124 b 731 -40 707 -136 746 -92 b 714 1 728 -26 722 -12 b 682 63 704 21 692 42 b 625 164 663 96 644 131 b 618 186 622 171 618 176 b 638 214 624 194 631 204 b 707 349 667 257 688 301 b 739 425 718 375 728 400 b 757 479 746 443 753 461 b 743 558 764 507 761 533 b 739 565 742 561 740 563 b 639 610 713 597 679 614 b 604 581 621 608 608 599 b 593 536 600 567 596 551 b 575 467 589 513 582 490 b 551 406 567 446 560 425 b 528 351 544 388 539 369 b 319 747 454 482 385 614 b 340 754 326 753 333 754 z m 340 194 b 290 190 324 189 307 189 b 229 229 263 190 243 206 b 218 263 224 239 219 251 b 219 325 215 285 215 306 b 288 439 228 360 249 407 b 293 432 289 436 292 435 b 360 290 315 385 338 338 b 390 228 369 269 379 249 b 396 215 392 225 393 221 b 340 194 378 206 360 200 z "},"(":{"ha":517,"x_min":0,"x_max":0,"o":"m 401 -68 b 386 -57 397 -64 392 -61 b 344 -28 372 -47 358 -39 b 333 -17 340 -25 336 -21 b 275 83 313 15 290 47 b 264 108 271 92 268 100 b 215 294 236 167 221 229 b 221 456 210 347 213 401 b 228 514 225 475 226 494 b 233 575 228 535 231 554 b 269 713 240 622 254 668 b 317 825 283 751 297 789 b 367 910 333 853 350 882 b 421 976 381 935 399 957 b 436 992 426 981 432 986 b 443 1036 447 1004 450 1019 b 418 1071 436 1049 429 1061 b 407 1079 415 1074 411 1078 b 371 1096 393 1082 382 1089 b 356 1103 365 1099 361 1101 b 322 1106 344 1107 335 1108 b 263 1069 297 1101 279 1088 b 218 1008 246 1050 231 1031 b 186 954 207 990 197 972 b 125 825 161 913 142 869 b 88 696 110 782 96 740 b 68 597 81 664 74 631 b 56 513 63 569 58 540 b 47 424 51 483 49 454 b 42 307 44 385 40 346 b 49 229 43 281 44 256 b 58 175 51 211 54 193 b 88 51 67 133 75 92 b 108 10 93 36 97 22 b 117 -4 111 6 114 0 b 138 -43 124 -18 131 -31 b 240 -158 165 -87 199 -128 b 276 -182 251 -167 264 -174 b 324 -192 290 -192 307 -196 b 336 -190 328 -190 332 -189 b 360 -183 346 -193 353 -189 b 404 -146 375 -171 389 -158 b 428 -107 417 -136 426 -124 b 401 -68 425 -90 415 -78 z "},"*":{"ha":547,"x_min":0,"x_max":0,"o":"m 157 701 b 96 679 136 693 117 686 b 56 657 82 674 68 667 b 40 640 49 653 43 647 b 39 610 36 631 35 619 b 67 560 46 592 54 575 b 114 551 79 543 97 540 b 147 578 126 558 138 568 b 219 651 172 601 196 626 b 225 657 221 653 224 656 b 233 656 228 658 231 658 b 226 636 231 649 228 642 b 211 568 221 614 213 592 b 213 529 210 554 210 542 b 246 488 217 510 228 496 b 279 478 256 483 268 481 b 313 478 290 474 301 476 b 349 538 340 485 356 510 b 324 632 340 569 332 600 b 319 653 321 639 321 646 b 324 651 321 653 322 653 b 363 617 338 640 351 631 b 376 603 367 611 371 607 b 429 569 392 590 410 579 b 444 565 433 567 440 567 b 475 578 457 565 467 571 b 517 647 497 596 511 619 b 499 688 521 667 515 678 b 447 710 482 697 465 706 b 369 729 421 715 394 722 b 354 733 364 729 360 731 b 351 744 354 738 353 740 b 375 756 360 749 368 753 b 453 793 401 768 428 781 b 481 813 463 799 472 804 b 499 857 494 824 501 839 b 471 911 496 878 486 896 b 429 917 460 922 444 925 b 418 910 425 914 422 913 b 394 889 410 903 401 896 b 321 811 369 864 343 839 b 310 801 318 808 315 806 b 311 839 308 815 311 828 b 325 907 314 863 319 885 b 326 943 326 919 328 931 b 306 971 325 957 318 967 b 289 975 300 974 294 975 b 251 972 276 975 264 974 b 221 958 240 969 231 964 b 206 915 206 947 200 933 b 232 818 215 883 219 850 b 236 799 233 813 235 806 b 228 794 232 797 231 796 b 217 801 224 797 219 799 b 125 868 185 822 154 843 b 92 885 115 876 104 882 b 68 881 83 888 75 886 b 47 854 60 872 53 864 b 31 815 40 842 35 829 b 40 782 26 801 31 790 b 69 764 49 774 58 768 b 113 749 83 758 97 751 b 181 725 136 743 158 733 b 194 718 185 724 188 722 b 157 701 181 710 168 706 z "},",":{"ha":250,"x_min":0,"x_max":0,"o":"m 92 -31 b 69 -62 85 -42 78 -53 b 60 -92 61 -71 58 -81 b 101 -129 64 -111 82 -128 b 146 -118 117 -129 132 -126 b 185 -83 161 -110 175 -97 b 226 7 206 -57 219 -26 b 204 124 233 49 225 88 b 169 151 196 138 185 146 b 126 160 156 157 142 158 b 85 151 113 160 97 158 b 28 92 58 138 39 117 b 76 -15 11 51 25 1 b 97 -21 83 -17 90 -19 b 92 -31 96 -25 94 -28 z "},"-":{"ha":557,"x_min":0,"x_max":0,"o":"m 326 306 b 383 307 346 306 365 306 b 461 314 410 307 436 308 b 529 378 493 319 518 339 b 532 392 531 383 531 388 b 535 418 535 400 535 410 b 510 467 535 442 526 457 b 476 476 499 472 488 475 b 390 479 449 478 419 479 b 294 478 360 479 328 478 b 285 476 292 476 288 476 b 117 468 232 474 175 471 b 86 467 107 468 96 469 b 58 450 76 464 68 456 b 35 425 47 444 40 436 b 22 388 28 414 25 400 b 78 311 15 347 40 314 b 175 306 111 310 143 304 b 189 306 179 307 185 307 b 246 303 208 303 228 303 b 326 306 274 304 300 304 b 326 306 326 306 326 306 z "},".":{"ha":258,"x_min":0,"x_max":0,"o":"m 221 110 b 150 157 204 135 179 150 b 56 136 115 164 83 157 b 24 75 36 119 25 100 b 22 53 22 68 22 60 b 47 -14 18 26 28 4 b 75 -33 56 -22 65 -28 b 135 -46 93 -44 113 -49 b 211 -7 164 -40 189 -26 b 238 57 229 11 236 33 b 221 110 236 76 232 93 z "},"/":{"ha":692,"x_min":0,"x_max":0,"o":"m 88 -19 b 125 -37 99 -29 111 -35 b 149 -37 133 -40 140 -39 b 182 -12 163 -33 174 -25 b 206 24 190 -1 199 11 b 239 94 217 47 228 71 b 297 219 258 136 276 179 b 375 383 325 274 350 329 b 464 569 404 446 435 507 b 550 738 492 626 521 682 b 590 821 565 764 578 793 b 607 861 597 833 601 847 b 615 879 610 867 613 872 b 622 931 621 896 624 913 b 608 957 621 942 617 951 b 554 972 593 969 574 974 b 510 942 535 969 519 960 b 503 929 507 938 504 933 b 446 836 485 897 465 867 b 426 806 439 826 432 815 b 414 779 421 797 415 789 b 397 740 410 765 403 753 b 374 696 389 726 381 711 b 281 513 342 635 311 574 b 196 332 251 453 224 392 b 153 238 181 300 167 269 b 104 124 136 200 121 163 b 82 72 97 107 89 89 b 69 18 75 56 71 39 b 88 -19 68 4 75 -8 z "},"=":{"ha":592,"x_min":0,"x_max":0,"o":"m 272 200 b 443 204 329 201 386 203 b 500 213 463 204 482 206 b 563 281 533 224 556 246 b 547 332 568 300 563 319 b 497 351 533 343 517 351 b 268 351 421 351 344 351 b 226 350 254 351 240 350 b 135 343 196 347 165 344 b 83 335 117 342 100 340 b 43 306 67 329 51 321 b 29 275 38 296 33 285 b 38 232 22 258 28 244 b 72 208 47 221 58 213 b 103 200 82 206 92 201 b 181 197 128 199 154 197 b 272 200 211 197 242 200 b 272 200 272 200 272 200 z m 283 397 b 389 401 318 399 353 399 b 499 422 426 404 464 411 b 529 438 510 426 519 432 b 549 469 540 446 546 457 b 550 485 549 475 550 479 b 513 546 553 513 539 538 b 474 553 500 550 488 553 b 419 556 456 554 438 556 b 404 556 415 557 410 557 b 340 553 383 556 361 554 b 274 546 318 551 296 549 b 213 542 253 544 232 543 b 140 538 189 539 165 539 b 99 528 126 536 113 533 b 49 494 78 521 63 510 b 35 456 39 483 33 469 b 72 407 38 432 49 414 b 114 399 86 403 100 400 b 204 392 144 396 176 394 b 283 397 233 394 258 396 z "},">":{"ha":419,"x_min":0,"x_max":0,"o":"m 83 215 b 99 206 88 211 93 207 b 156 208 118 197 138 197 b 226 257 181 224 204 239 b 278 297 244 271 261 283 b 371 376 310 322 342 349 b 389 394 378 382 383 388 b 393 447 401 411 403 429 b 375 475 388 457 382 468 b 301 543 351 500 329 524 b 264 572 289 551 276 563 b 203 624 243 589 224 607 b 129 674 179 640 154 657 b 107 685 122 678 115 682 b 76 679 96 690 85 686 b 69 671 74 676 71 674 b 43 635 61 660 51 647 b 31 600 36 625 32 613 b 36 564 28 588 31 575 b 61 539 42 553 51 544 b 228 449 115 507 169 475 b 233 446 229 447 231 447 b 238 436 236 443 239 442 b 196 410 225 426 210 419 b 92 347 161 389 126 368 b 65 329 83 342 74 335 b 42 290 53 319 44 307 b 83 215 51 260 64 238 z "},"?":{"ha":544,"x_min":0,"x_max":0,"o":"m 340 293 b 347 363 340 317 343 339 b 386 461 356 397 371 429 b 404 488 390 471 397 479 b 478 590 429 521 454 556 b 519 683 497 618 511 650 b 521 779 526 715 529 747 b 500 836 517 799 510 818 b 433 911 485 867 463 892 b 322 949 400 933 363 946 b 242 950 294 950 268 949 b 183 942 222 950 203 946 b 67 849 132 926 93 896 b 25 739 47 814 36 776 b 17 660 18 713 15 686 b 25 624 18 647 21 635 b 38 608 28 617 32 613 b 119 576 63 592 88 578 b 203 617 156 574 185 582 b 206 622 204 618 204 619 b 204 632 206 625 204 629 b 201 710 200 658 199 683 b 219 761 203 729 210 746 b 297 781 238 786 265 796 b 344 688 328 765 353 732 b 342 671 343 682 342 676 b 331 626 342 656 336 640 b 296 574 321 607 310 590 b 238 499 276 549 258 524 b 194 425 221 476 207 451 b 179 350 183 401 178 375 b 186 275 179 325 179 299 b 204 224 190 257 194 239 b 246 199 214 207 228 200 b 311 207 268 199 290 197 b 342 232 328 208 338 219 b 340 293 342 254 340 274 z m 357 125 b 339 151 351 135 346 143 b 329 160 336 154 333 158 b 274 174 313 168 293 175 b 217 153 253 171 233 165 b 183 121 204 144 193 133 b 167 39 167 96 161 68 b 199 -19 171 17 182 -3 b 239 -43 210 -31 224 -39 b 317 -32 267 -51 294 -49 b 371 74 351 -7 372 25 b 357 125 372 89 367 108 z "},"@":{"ha":900,"x_min":0,"x_max":0,"o":"m 563 364 b 579 335 569 354 575 344 b 596 306 585 325 589 314 b 671 253 613 278 638 260 b 776 276 710 246 744 256 b 832 339 800 293 818 315 b 869 467 854 379 865 422 b 869 532 871 489 872 511 b 856 610 868 558 867 585 b 851 622 853 614 853 618 b 828 696 847 649 839 672 b 790 763 815 718 804 740 b 621 904 750 828 693 875 b 514 931 586 917 550 926 b 396 924 474 936 435 933 b 247 854 342 910 292 889 b 163 772 215 829 188 803 b 83 644 128 735 101 692 b 33 451 61 582 40 518 b 38 332 31 411 31 372 b 68 228 44 296 56 261 b 96 171 75 207 83 189 b 119 132 103 157 111 144 b 140 106 125 122 132 113 b 226 40 167 81 196 60 b 342 -7 261 18 301 3 b 440 -17 374 -15 407 -17 b 543 4 475 -17 510 -8 b 658 82 588 21 625 50 b 675 142 676 97 681 119 b 664 168 674 151 669 161 b 638 204 656 181 647 193 b 629 214 636 207 632 211 b 569 218 607 229 592 233 b 553 206 564 214 558 210 b 536 192 547 201 542 196 b 375 147 489 156 436 139 b 263 201 332 154 294 172 b 200 311 231 231 211 268 b 190 364 194 328 193 346 b 189 454 185 394 185 425 b 267 649 199 525 224 592 b 307 699 279 667 293 682 b 350 735 319 713 332 726 b 403 761 367 744 385 753 b 440 772 415 765 428 769 b 535 769 472 778 504 775 b 618 740 564 765 590 751 b 628 733 622 739 625 736 b 696 643 654 706 678 676 b 731 538 714 610 724 574 b 735 479 733 518 735 499 b 731 454 735 469 733 463 b 685 425 724 433 707 422 b 671 435 679 426 674 429 b 658 463 667 443 661 453 b 642 531 650 485 646 507 b 633 594 639 551 636 574 b 617 647 631 613 625 631 b 599 671 613 657 607 665 b 519 649 571 689 533 679 b 514 622 517 640 515 631 b 510 608 514 617 515 613 b 489 617 503 611 496 614 b 444 631 474 621 460 628 b 313 586 393 640 349 626 b 267 507 292 564 276 536 b 254 379 251 465 246 424 b 314 260 261 333 281 293 b 369 231 329 244 349 233 b 407 228 382 228 394 228 b 471 250 431 228 451 236 b 521 310 493 265 510 285 b 544 369 529 329 538 349 b 563 364 554 372 560 371 z m 489 489 b 456 390 482 454 469 422 b 443 378 453 385 449 381 b 419 372 436 376 428 372 b 390 390 404 369 396 375 b 386 450 383 410 382 429 b 419 517 392 475 404 497 b 458 535 429 531 443 535 b 489 526 468 535 479 533 b 489 489 492 513 490 500 z "},"A":{"ha":876,"x_min":0,"x_max":0,"o":"m 593 167 b 600 132 594 156 597 144 b 615 79 604 115 610 97 b 619 64 617 75 618 69 b 643 35 625 51 632 42 b 679 18 654 28 667 21 b 750 8 703 11 726 8 b 799 25 768 8 785 14 b 821 44 807 31 814 38 b 850 115 840 64 850 88 b 846 164 849 132 847 149 b 840 222 844 183 843 203 b 832 308 836 251 833 279 b 832 324 832 314 832 318 b 825 394 829 347 826 371 b 819 478 822 422 821 450 b 815 531 818 496 817 513 b 804 611 811 557 807 585 b 782 746 797 657 792 701 b 747 854 774 783 764 819 b 704 924 736 879 722 903 b 661 953 693 936 678 946 b 603 958 643 960 624 963 b 539 956 582 956 560 954 b 385 953 488 956 436 957 b 372 954 381 953 376 954 b 233 953 326 957 281 960 b 132 926 199 947 165 939 b 40 851 86 910 65 892 b 25 813 33 839 26 826 b 11 740 19 789 17 764 b 6 686 8 722 8 704 b 8 617 3 663 6 640 b 47 575 11 594 25 581 b 58 574 51 575 54 574 b 106 568 74 572 90 571 b 147 576 121 567 133 571 b 178 618 165 585 175 597 b 183 663 178 633 182 647 b 233 722 189 692 206 711 b 242 725 236 722 239 724 b 297 736 260 731 278 733 b 322 736 306 738 314 738 b 322 713 325 728 324 719 b 315 638 321 688 318 663 b 306 538 313 604 310 571 b 294 415 300 497 299 456 b 289 333 292 389 290 361 b 283 288 288 318 285 303 b 278 232 282 269 279 250 b 271 157 275 207 272 182 b 272 81 268 132 268 106 b 315 21 276 53 292 35 b 421 7 349 3 385 3 b 439 11 426 8 432 10 b 479 54 461 17 474 32 b 485 111 483 74 485 92 b 483 183 483 135 483 158 b 485 193 483 186 485 189 b 588 199 519 197 553 199 b 593 167 590 186 592 176 z m 535 708 b 538 706 536 707 538 707 b 542 686 539 699 540 693 b 551 585 544 653 550 618 b 561 486 554 551 558 519 b 563 485 563 486 563 485 b 568 378 564 449 567 413 b 567 371 568 375 567 374 b 561 369 564 371 563 369 b 496 372 539 371 517 371 b 492 375 494 372 493 374 b 493 438 490 396 492 417 b 496 458 494 444 494 451 b 503 525 499 481 500 503 b 508 567 504 539 507 553 b 522 692 513 608 517 650 b 526 707 522 696 525 701 b 535 708 529 708 532 708 z "},"B":{"ha":917,"x_min":0,"x_max":0,"o":"m 732 565 b 742 575 735 568 739 571 b 815 674 772 603 797 636 b 838 785 832 708 840 746 b 801 889 835 822 824 857 b 721 950 782 918 756 940 b 653 963 699 957 676 961 b 593 965 633 963 614 963 b 514 963 567 967 540 965 b 451 960 493 960 472 958 b 347 958 417 963 382 960 b 285 956 326 958 306 957 b 244 951 272 954 258 953 b 181 946 224 950 201 949 b 43 851 119 936 74 904 b 6 715 19 810 8 764 b 11 639 4 690 7 664 b 25 590 14 622 18 606 b 75 531 35 565 51 544 b 114 517 88 522 100 517 b 136 515 121 517 129 517 b 171 521 147 515 160 517 b 190 528 176 524 183 526 b 221 557 207 531 217 540 b 225 583 224 565 225 575 b 229 675 226 614 228 644 b 236 729 231 693 233 711 b 269 768 240 749 251 760 b 321 764 286 774 304 775 b 333 757 325 763 329 758 b 361 721 349 749 356 736 b 368 663 367 701 369 682 b 367 633 367 653 367 643 b 367 203 367 490 365 347 b 369 115 367 174 368 144 b 369 107 369 113 369 110 b 433 19 375 67 397 38 b 501 1 454 8 478 1 b 601 -3 535 0 568 -1 b 671 0 625 -4 647 -3 b 768 38 706 6 739 17 b 801 60 779 44 790 51 b 856 122 825 75 844 96 b 868 156 860 133 864 144 b 892 258 879 189 886 224 b 894 308 894 275 896 292 b 889 368 894 328 893 349 b 843 472 881 407 867 442 b 742 542 817 507 783 532 b 729 547 738 543 733 544 b 728 560 729 551 729 556 b 732 565 731 563 731 564 z m 583 408 b 625 393 597 406 611 400 b 656 360 639 386 650 375 b 660 276 667 332 668 304 b 604 182 649 240 629 208 b 569 164 592 169 588 168 b 568 167 569 165 568 167 b 568 400 568 244 568 322 b 569 410 568 403 569 406 b 583 408 575 408 579 410 z m 626 757 b 643 736 636 754 643 747 b 640 719 643 731 642 725 b 631 696 638 711 635 703 b 590 646 619 676 606 661 b 576 636 586 642 581 639 b 572 646 571 639 572 642 b 571 708 571 667 572 688 b 568 754 571 724 569 739 b 569 764 568 757 569 760 b 626 757 590 765 608 763 z "},"C":{"ha":657,"x_min":0,"x_max":0,"o":"m 401 688 b 401 661 401 679 401 669 b 406 615 401 644 403 629 b 446 565 410 590 424 574 b 489 557 460 560 475 556 b 553 572 511 558 532 563 b 604 643 583 586 600 610 b 607 724 607 669 607 696 b 607 738 607 728 607 733 b 583 826 603 768 596 799 b 578 840 581 831 579 836 b 521 921 568 875 547 901 b 428 965 493 942 461 957 b 382 969 413 968 397 968 b 350 969 372 971 361 971 b 325 968 342 969 333 968 b 256 953 301 968 278 963 b 150 878 215 936 182 908 b 107 819 132 861 118 842 b 76 754 96 799 86 776 b 35 601 53 706 39 656 b 31 556 33 586 32 571 b 26 468 25 526 26 497 b 35 365 28 433 31 399 b 51 269 38 333 44 301 b 76 188 57 242 67 214 b 149 49 93 136 118 90 b 231 -53 174 13 203 -21 b 329 -135 260 -85 293 -112 b 438 -181 363 -156 400 -169 b 503 -196 458 -187 481 -194 b 590 -192 532 -200 561 -199 b 650 -150 617 -186 636 -171 b 664 -11 679 -106 681 -58 b 625 17 657 7 643 15 b 588 11 613 18 600 14 b 529 7 569 7 550 4 b 467 26 507 10 486 17 b 381 83 435 42 407 61 b 336 136 361 97 347 115 b 267 300 306 188 283 243 b 240 440 254 346 244 393 b 235 519 239 467 236 493 b 236 601 233 547 233 574 b 258 704 239 636 247 671 b 296 764 265 726 279 747 b 311 778 300 769 306 775 b 397 750 336 796 382 794 b 401 718 401 740 401 729 b 401 688 401 707 401 697 b 401 688 401 688 401 688 z "},"D":{"ha":951,"x_min":0,"x_max":0,"o":"m 351 229 b 356 138 354 199 353 168 b 365 76 357 117 361 97 b 408 26 369 51 385 35 b 431 19 415 24 422 21 b 471 10 443 17 457 14 b 479 7 474 8 476 8 b 572 0 510 3 542 0 b 633 7 593 1 614 3 b 740 49 671 15 707 28 b 767 63 749 54 758 58 b 818 108 788 74 804 89 b 842 150 826 122 835 136 b 897 289 864 194 885 240 b 921 408 907 329 915 368 b 926 461 924 426 925 443 b 921 578 929 500 932 539 b 921 581 921 579 921 579 b 890 703 915 622 904 663 b 869 749 885 718 878 735 b 786 861 847 790 819 828 b 715 921 764 883 739 901 b 678 940 704 929 692 936 b 592 956 650 949 621 956 b 558 958 581 956 569 957 b 485 961 533 961 508 961 b 453 961 474 961 464 961 b 364 960 424 960 394 960 b 294 957 342 960 318 958 b 253 957 281 957 267 957 b 186 953 231 957 208 956 b 79 911 147 947 111 933 b 50 881 68 903 58 893 b 19 814 36 861 26 839 b 10 756 14 794 11 776 b 6 653 6 722 1 688 b 79 557 11 606 38 575 b 104 551 88 553 96 551 b 122 550 110 551 117 551 b 150 551 132 547 140 550 b 183 583 167 556 178 565 b 188 603 185 589 188 596 b 188 667 188 624 192 646 b 188 676 188 669 188 674 b 224 739 186 706 200 725 b 236 744 228 742 232 743 b 271 754 249 749 260 753 b 310 754 283 756 297 756 b 346 721 331 753 343 742 b 347 669 347 704 349 686 b 344 499 346 613 347 556 b 346 388 343 463 346 425 b 351 229 347 335 347 282 z m 579 736 b 613 725 592 736 603 735 b 657 643 633 700 650 675 b 674 579 663 622 671 601 b 679 524 675 561 678 542 b 679 485 681 511 679 497 b 674 386 681 453 676 419 b 664 324 671 365 669 344 b 639 253 657 300 650 275 b 621 224 633 243 626 233 b 592 214 614 213 603 211 b 583 219 589 214 585 217 b 581 233 582 224 581 229 b 579 274 581 247 581 261 b 572 415 578 321 575 368 b 571 504 571 444 571 474 b 571 590 571 532 571 561 b 568 672 571 618 572 644 b 568 681 568 675 568 678 b 572 732 569 697 571 714 b 579 736 575 733 578 736 z "},"E":{"ha":874,"x_min":0,"x_max":0,"o":"m 542 692 b 543 696 542 693 542 694 b 553 706 544 701 547 704 b 568 706 558 706 563 706 b 726 706 621 706 674 706 b 757 706 736 706 747 706 b 794 713 769 707 783 708 b 831 756 815 721 828 735 b 835 794 833 768 835 782 b 831 856 835 815 833 836 b 811 918 828 878 821 899 b 781 947 804 931 793 940 b 740 958 768 954 754 958 b 533 958 671 961 603 960 b 278 963 449 958 364 960 b 174 958 242 964 207 964 b 122 944 156 956 138 956 b 114 940 119 943 117 942 b 71 910 97 933 83 924 b 49 885 63 901 57 893 b 13 813 31 864 19 840 b 7 692 3 774 1 733 b 35 617 11 665 21 640 b 43 603 38 613 40 607 b 125 554 57 567 88 554 b 160 557 136 554 149 556 b 214 604 186 560 208 571 b 219 640 217 617 218 628 b 222 692 221 657 221 675 b 228 719 224 701 225 710 b 251 756 232 732 238 746 b 276 754 260 756 268 756 b 297 753 283 754 290 754 b 326 728 315 751 322 746 b 331 689 331 715 332 703 b 328 664 329 681 328 672 b 328 640 328 656 328 649 b 325 550 326 611 325 581 b 326 501 325 535 326 518 b 331 317 326 440 326 379 b 335 235 332 290 332 263 b 340 147 338 206 339 176 b 347 85 340 126 343 106 b 354 58 350 75 351 67 b 424 13 364 31 394 10 b 457 11 435 13 446 13 b 492 7 468 10 481 7 b 589 4 524 6 556 4 b 669 6 615 3 643 6 b 722 11 688 6 704 8 b 815 94 768 22 800 49 b 838 185 825 124 833 154 b 832 260 840 210 839 235 b 808 286 828 272 819 281 b 782 290 800 290 792 292 b 753 286 772 290 763 289 b 668 279 725 282 697 278 b 640 278 658 279 650 279 b 589 274 624 276 606 275 b 561 274 579 272 571 272 b 542 282 554 274 547 275 b 538 322 540 294 539 308 b 536 339 536 328 536 333 b 540 381 532 353 536 367 b 581 390 553 388 567 389 b 707 381 622 390 665 388 b 751 372 722 378 736 375 b 799 400 775 369 790 378 b 806 433 801 411 804 422 b 813 493 808 453 811 472 b 811 543 814 510 814 526 b 788 574 807 557 800 568 b 764 582 779 578 771 581 b 686 593 738 588 713 592 b 565 597 646 594 606 596 b 533 604 554 597 544 599 b 542 692 529 626 539 674 z "},"F":{"ha":903,"x_min":0,"x_max":0,"o":"m 481 711 b 532 701 499 708 515 706 b 664 686 576 690 619 685 b 775 707 701 686 739 693 b 832 738 794 714 815 722 b 840 743 835 740 838 742 b 889 788 861 753 876 769 b 894 900 913 825 914 861 b 854 947 885 919 871 935 b 833 957 847 951 840 954 b 808 958 825 961 817 961 b 769 935 794 953 781 947 b 740 917 761 926 751 919 b 700 911 726 913 714 911 b 633 921 678 914 656 917 b 549 936 606 925 578 931 b 458 951 518 940 489 946 b 407 960 440 954 424 958 b 342 967 385 963 363 963 b 279 963 321 969 300 967 b 204 947 254 958 229 953 b 38 856 140 932 85 903 b 18 831 31 847 24 839 b 1 740 0 803 -8 774 b 22 678 7 719 15 699 b 47 654 26 665 35 657 b 58 650 51 653 54 651 b 115 668 81 646 101 649 b 121 675 117 671 119 672 b 163 715 132 690 147 704 b 219 743 179 728 199 738 b 243 742 228 746 236 744 b 260 719 254 738 260 732 b 256 625 258 689 258 657 b 251 514 253 589 251 551 b 250 335 250 454 250 394 b 247 196 250 289 250 243 b 250 64 244 153 244 108 b 288 13 253 40 265 22 b 326 4 300 8 314 6 b 432 10 363 1 397 6 b 446 13 436 10 442 13 b 476 40 461 17 471 26 b 483 93 482 57 488 75 b 482 118 482 101 482 110 b 481 138 481 125 482 132 b 468 218 476 164 472 192 b 457 329 460 256 457 292 b 457 346 457 335 457 340 b 486 371 461 365 467 371 b 490 371 488 371 489 371 b 594 371 525 371 560 371 b 611 369 600 371 606 369 b 688 374 636 365 663 369 b 735 424 717 379 731 394 b 742 482 738 443 740 463 b 742 521 743 494 743 508 b 733 563 740 535 739 549 b 699 594 726 578 715 589 b 669 597 689 597 679 599 b 632 592 657 596 644 593 b 508 571 590 585 550 576 b 443 572 486 568 465 568 b 432 586 436 575 433 579 b 440 685 424 619 429 653 b 463 713 444 696 449 706 b 481 711 468 711 475 713 z "},"G":{"ha":710,"x_min":0,"x_max":0,"o":"m 668 315 b 668 315 668 315 668 315 b 668 344 668 325 668 335 b 661 443 668 378 667 411 b 657 510 658 465 658 488 b 608 575 657 540 640 563 b 574 583 597 579 586 582 b 526 589 558 586 543 588 b 389 578 479 596 433 592 b 358 565 378 575 368 571 b 328 529 342 558 332 544 b 324 446 321 501 318 474 b 376 390 329 418 346 399 b 406 382 386 388 396 385 b 424 376 411 381 418 379 b 438 363 431 375 436 369 b 442 333 439 353 442 343 b 436 254 444 307 442 281 b 403 196 432 232 421 213 b 371 189 393 186 382 185 b 307 214 353 193 319 201 b 275 268 292 229 281 247 b 267 321 272 286 268 304 b 263 453 265 365 264 408 b 265 507 263 471 264 489 b 278 622 267 539 272 590 b 322 749 286 665 297 708 b 374 781 332 769 350 778 b 433 760 389 782 425 776 b 438 732 436 750 438 742 b 438 693 438 719 436 706 b 493 636 440 664 463 642 b 521 632 503 633 513 632 b 576 632 539 631 558 631 b 608 636 588 632 599 633 b 653 686 639 643 653 663 b 653 706 653 692 653 699 b 638 786 653 732 644 760 b 606 851 632 810 622 832 b 592 869 600 857 596 864 b 494 950 568 906 533 931 b 358 974 451 971 406 975 b 285 967 333 974 310 969 b 228 951 265 964 246 958 b 132 881 190 935 158 910 b 61 744 96 840 75 794 b 43 661 54 717 49 689 b 32 553 38 625 31 589 b 32 511 32 539 32 525 b 36 411 33 478 32 444 b 40 322 39 382 38 351 b 51 239 42 294 46 267 b 97 114 60 196 75 153 b 124 75 106 100 114 88 b 225 11 150 43 183 22 b 313 -4 254 3 283 0 b 338 -6 321 -4 329 -6 b 390 -1 356 -4 372 -3 b 431 4 404 1 417 3 b 449 -14 440 4 449 -4 b 447 -112 449 -51 447 -85 b 447 -112 447 -112 447 -112 b 447 -136 447 -121 447 -129 b 365 -169 442 -207 394 -218 b 350 -133 358 -158 354 -146 b 161 -187 322 -56 150 -107 b 424 -417 192 -415 319 -417 b 653 -250 438 -417 603 -396 b 653 -250 653 -250 653 -250 b 661 -218 657 -239 660 -229 b 663 -212 661 -217 661 -214 b 663 -208 663 -211 663 -210 b 667 -179 664 -199 665 -189 b 667 -167 667 -175 667 -171 b 667 -151 667 -165 667 -160 b 668 -151 667 -151 668 -151 b 667 -151 668 -151 667 -151 b 668 289 668 -71 668 272 b 668 315 668 297 668 307 z "},"H":{"ha":1068,"x_min":0,"x_max":0,"o":"m 614 579 b 608 614 608 590 608 603 b 614 789 607 672 613 731 b 614 790 614 789 614 790 b 618 867 618 815 618 842 b 618 892 618 875 618 883 b 581 949 615 917 603 936 b 513 969 560 961 536 968 b 446 974 490 971 468 972 b 349 981 414 976 381 979 b 226 976 308 983 268 979 b 154 965 203 974 178 971 b 68 917 121 956 92 942 b 15 817 42 888 24 854 b 7 731 10 789 6 760 b 11 675 8 713 10 693 b 22 603 13 650 17 626 b 57 553 28 582 40 565 b 201 551 94 522 165 525 b 204 554 201 553 203 554 b 222 582 213 563 219 571 b 224 643 226 603 226 622 b 222 676 224 654 222 665 b 235 711 222 689 226 701 b 297 742 251 731 271 743 b 343 742 313 742 328 742 b 354 739 347 740 350 740 b 356 722 354 733 356 728 b 353 685 354 710 353 697 b 349 592 351 653 350 622 b 344 465 347 550 347 508 b 343 378 342 436 343 407 b 340 283 342 346 343 314 b 344 125 338 231 339 178 b 372 42 346 96 356 68 b 407 10 381 28 392 18 b 472 -1 428 0 450 -3 b 496 0 481 -1 488 0 b 544 11 513 1 529 6 b 572 29 556 15 564 21 b 600 83 588 44 596 63 b 608 139 604 101 607 121 b 613 274 610 183 614 229 b 613 314 613 288 613 300 b 614 332 613 319 613 326 b 626 354 615 342 619 347 b 675 371 640 365 657 371 b 740 371 697 371 718 371 b 753 369 744 371 749 371 b 760 353 756 364 758 358 b 764 319 761 342 764 331 b 765 236 764 292 765 264 b 764 201 765 225 765 213 b 760 99 760 167 760 132 b 765 58 760 85 761 72 b 810 7 771 33 786 17 b 835 0 818 4 826 1 b 947 -4 872 -6 910 -8 b 996 33 971 -1 988 10 b 1004 65 1000 43 1003 54 b 1008 114 1006 82 1007 97 b 1013 294 1010 174 1014 235 b 1011 318 1013 303 1013 310 b 1010 365 1011 333 1010 350 b 1010 474 1010 401 1008 438 b 1013 581 1010 508 1011 544 b 1014 614 1013 592 1014 603 b 1021 700 1017 643 1019 671 b 1021 839 1022 746 1021 793 b 1018 869 1021 849 1019 860 b 950 949 1013 911 988 935 b 908 956 938 953 924 956 b 825 956 881 956 853 956 b 797 951 815 956 807 954 b 756 906 775 944 761 929 b 753 876 754 896 753 886 b 753 794 751 850 753 822 b 758 626 751 739 753 683 b 758 608 760 621 760 614 b 749 589 758 600 754 593 b 714 578 738 581 726 578 b 638 569 689 578 663 575 b 621 568 632 568 626 569 b 614 579 618 572 615 575 z "},"I":{"ha":633,"x_min":0,"x_max":0,"o":"m 342 739 b 339 518 340 665 340 592 b 339 344 338 460 340 401 b 342 129 338 276 336 197 b 346 81 342 114 343 97 b 350 60 346 74 347 67 b 389 14 356 38 368 22 b 407 7 394 11 400 10 b 524 3 433 -1 513 3 b 540 7 529 3 535 4 b 561 32 550 13 557 21 b 572 97 568 53 572 74 b 574 281 572 161 574 217 b 578 367 575 310 576 338 b 585 525 582 419 585 472 b 585 547 585 532 586 540 b 583 600 582 565 583 582 b 581 736 582 646 582 690 b 579 756 581 742 579 749 b 574 826 576 779 574 801 b 574 867 574 839 574 853 b 553 951 574 897 565 925 b 540 964 550 957 546 961 b 496 975 526 971 513 975 b 432 969 475 974 453 972 b 360 965 408 967 383 964 b 308 968 343 967 325 967 b 190 964 269 969 229 968 b 89 928 153 960 119 949 b 21 839 57 907 33 878 b 8 771 14 817 10 794 b 17 636 6 725 8 681 b 31 594 21 621 25 608 b 119 525 50 557 79 532 b 200 538 149 519 175 524 b 232 588 219 549 229 565 b 228 632 232 603 232 618 b 219 664 225 643 222 653 b 219 728 211 696 211 696 b 250 758 224 746 235 756 b 279 763 260 761 269 763 b 336 763 297 763 317 763 b 340 760 338 763 338 761 b 342 739 343 754 342 746 z "},"J":{"ha":597,"x_min":0,"x_max":0,"o":"m 336 753 b 336 696 336 733 336 715 b 340 540 338 644 339 592 b 340 518 340 532 340 525 b 344 453 342 496 343 474 b 346 396 344 433 344 415 b 346 282 346 358 346 319 b 338 236 346 267 343 251 b 303 196 332 218 319 206 b 268 201 289 189 279 190 b 256 218 263 207 260 213 b 244 260 249 231 244 244 b 244 292 244 269 244 281 b 239 338 246 307 243 322 b 194 379 233 361 218 375 b 93 357 157 389 122 382 b 56 314 78 346 67 329 b 21 218 36 285 25 253 b 33 108 17 181 22 144 b 78 46 43 83 57 63 b 110 21 89 38 99 29 b 292 -43 163 -21 225 -39 b 342 -39 308 -43 325 -42 b 447 4 381 -35 417 -21 b 463 17 451 8 457 13 b 514 94 489 38 507 63 b 522 121 517 103 519 113 b 543 235 536 158 540 196 b 543 300 544 257 543 278 b 544 432 544 343 544 388 b 544 451 544 439 544 446 b 551 544 547 483 550 514 b 551 732 551 607 551 669 b 549 851 551 772 551 813 b 538 901 546 868 543 885 b 478 947 528 928 506 943 b 424 951 460 950 442 951 b 321 956 389 953 356 954 b 157 957 267 957 211 956 b 107 951 140 957 124 954 b 83 944 99 950 90 947 b 51 915 68 938 58 928 b 39 850 42 894 39 872 b 43 819 39 839 40 829 b 63 767 46 800 50 782 b 108 740 74 751 89 742 b 151 744 122 739 138 740 b 290 767 197 757 243 764 b 315 768 299 767 307 768 b 335 765 321 768 328 771 b 336 753 335 763 336 757 z "},"K":{"ha":938,"x_min":0,"x_max":0,"o":"m 489 964 b 411 968 463 965 436 967 b 338 969 386 969 361 969 b 228 968 301 969 264 969 b 144 956 200 968 172 963 b 115 947 135 953 125 950 b 60 915 93 943 74 933 b 28 851 43 897 33 875 b 14 761 21 822 17 792 b 13 740 14 754 14 747 b 7 675 11 718 8 696 b 11 611 6 654 8 632 b 44 556 14 589 25 569 b 108 532 64 540 85 533 b 138 529 118 532 128 531 b 150 528 142 528 146 528 b 211 574 182 526 204 544 b 213 590 213 579 213 585 b 210 638 213 607 211 622 b 231 699 207 661 214 682 b 247 715 236 704 242 710 b 274 725 254 722 263 725 b 307 725 285 725 296 725 b 325 715 315 725 321 721 b 339 682 333 706 339 694 b 336 592 338 651 338 621 b 332 408 335 531 336 469 b 331 307 329 375 331 340 b 328 201 329 272 332 238 b 328 185 328 196 328 190 b 335 100 331 157 331 128 b 350 50 339 82 342 65 b 390 14 360 33 372 21 b 433 6 404 8 419 6 b 531 13 467 3 499 8 b 538 14 533 13 536 14 b 574 44 554 19 567 29 b 579 63 576 50 578 57 b 592 138 586 88 589 113 b 588 281 594 185 593 232 b 576 364 583 308 581 336 b 579 378 575 368 576 374 b 589 383 581 382 583 383 b 600 376 594 383 599 381 b 604 353 601 368 603 361 b 608 303 606 336 607 319 b 613 272 610 293 611 282 b 622 194 617 246 618 221 b 643 96 628 161 636 129 b 660 56 647 82 653 68 b 696 24 667 39 679 28 b 725 18 706 22 715 19 b 824 7 758 13 790 8 b 879 29 844 7 865 10 b 885 33 881 31 882 32 b 894 65 896 42 897 53 b 890 88 893 72 892 81 b 883 133 889 103 886 118 b 847 247 875 172 861 210 b 818 333 838 276 825 304 b 782 489 807 385 794 436 b 769 533 778 503 774 518 b 772 557 768 542 768 550 b 782 576 776 564 779 569 b 865 744 811 632 840 686 b 907 833 878 774 890 804 b 921 900 918 854 922 876 b 886 960 919 926 908 946 b 853 972 876 965 865 969 b 765 979 824 978 794 978 b 757 978 763 979 760 978 b 701 935 731 972 711 960 b 679 878 694 915 688 896 b 643 765 664 842 651 804 b 604 643 635 724 621 683 b 596 622 601 636 599 629 b 593 617 594 621 594 618 b 572 603 586 604 581 600 b 568 626 565 607 564 614 b 572 642 569 631 571 636 b 576 660 574 649 575 654 b 578 717 576 679 578 699 b 575 824 579 753 576 789 b 567 890 574 847 571 869 b 528 960 561 918 549 940 b 489 964 514 961 501 964 z "},"L":{"ha":882,"x_min":0,"x_max":0,"o":"m 599 332 b 596 583 597 415 597 500 b 596 690 596 618 596 654 b 592 793 594 725 596 758 b 593 822 590 803 592 813 b 603 869 597 838 600 854 b 603 921 604 886 606 904 b 575 958 600 938 592 950 b 565 963 572 960 569 961 b 483 979 539 972 511 976 b 461 978 476 979 468 979 b 419 975 447 975 433 975 b 379 975 406 975 392 975 b 236 971 331 976 283 974 b 174 963 215 969 194 968 b 64 883 126 951 90 925 b 32 817 51 863 42 840 b 8 692 17 776 7 736 b 8 678 8 688 8 682 b 14 592 10 649 10 619 b 82 517 19 549 40 525 b 121 508 94 514 107 511 b 168 503 136 506 151 503 b 206 517 182 504 194 508 b 242 594 228 538 243 563 b 242 615 242 601 242 608 b 246 658 240 631 243 644 b 289 707 250 683 264 701 b 310 710 296 708 303 710 b 365 710 328 711 346 710 b 375 708 368 710 371 708 b 376 694 375 703 376 699 b 379 581 378 657 378 619 b 383 293 382 485 379 389 b 383 129 385 239 383 183 b 382 106 383 121 382 114 b 379 68 381 93 379 81 b 392 38 379 57 385 47 b 413 24 399 32 406 26 b 439 15 421 21 431 18 b 547 4 475 7 511 6 b 658 6 585 3 621 6 b 700 7 672 7 686 7 b 760 13 721 7 740 8 b 810 28 776 15 793 19 b 839 53 821 33 831 43 b 868 121 854 74 864 96 b 881 207 872 149 876 178 b 882 264 882 226 882 246 b 844 313 881 289 868 306 b 788 322 826 319 807 324 b 746 319 774 322 760 319 b 647 313 713 317 679 314 b 600 315 632 311 617 313 b 599 332 599 322 599 328 z "},"M":{"ha":1122,"x_min":0,"x_max":0,"o":"m 683 590 b 653 710 672 629 664 669 b 607 878 639 767 622 822 b 590 924 603 894 597 908 b 563 951 583 935 575 946 b 551 961 558 954 554 957 b 538 968 549 967 543 968 b 521 969 532 969 526 969 b 443 976 494 972 469 974 b 426 978 438 976 432 976 b 328 978 393 981 361 981 b 249 972 301 978 275 975 b 147 954 214 968 181 964 b 28 858 93 940 54 907 b 4 757 11 826 3 793 b 8 688 4 733 6 711 b 28 626 11 665 17 644 b 39 599 33 617 36 608 b 76 560 44 579 58 567 b 122 556 92 554 107 553 b 172 572 139 560 156 565 b 201 607 189 578 199 590 b 208 674 204 629 210 651 b 208 690 207 679 207 685 b 229 744 210 711 215 729 b 250 761 235 751 242 758 b 297 764 265 767 282 767 b 306 740 301 756 306 749 b 303 703 304 728 304 715 b 296 629 300 678 297 654 b 292 363 294 540 290 451 b 292 290 292 338 292 314 b 296 150 292 243 290 196 b 300 101 297 133 299 118 b 308 74 301 92 306 82 b 346 25 314 53 328 36 b 392 8 361 17 375 11 b 444 -1 410 4 428 1 b 486 -1 460 -4 472 -4 b 543 50 515 4 535 22 b 547 83 546 61 547 72 b 546 243 547 136 547 190 b 540 342 546 276 542 308 b 536 447 539 376 538 411 b 531 478 535 457 535 468 b 526 499 528 485 528 492 b 515 586 524 528 522 557 b 510 617 513 596 511 607 b 519 632 510 625 513 629 b 535 621 526 633 532 629 b 535 618 535 619 535 619 b 549 529 540 589 547 560 b 554 483 550 514 553 499 b 574 381 561 449 567 415 b 594 283 581 349 588 315 b 604 257 596 274 600 265 b 651 221 615 238 629 225 b 743 218 682 217 713 218 b 761 226 750 218 756 222 b 779 253 769 233 775 243 b 806 346 792 283 799 314 b 821 438 810 376 815 407 b 835 535 826 469 831 503 b 840 583 838 551 839 567 b 846 658 842 608 847 633 b 847 675 846 664 846 669 b 858 685 847 679 853 683 b 869 676 863 685 868 681 b 871 664 871 672 871 668 b 867 582 872 638 868 610 b 864 543 867 569 864 556 b 856 328 864 471 863 400 b 851 240 854 299 853 269 b 846 126 849 203 846 165 b 840 79 846 111 844 94 b 843 43 839 67 842 56 b 857 29 844 36 850 31 b 922 15 879 25 900 18 b 1004 13 950 11 976 11 b 1056 50 1028 14 1047 26 b 1061 65 1058 54 1060 60 b 1069 124 1064 85 1068 104 b 1074 256 1072 168 1072 211 b 1075 363 1075 292 1075 328 b 1071 594 1074 440 1075 518 b 1065 738 1069 642 1068 690 b 1064 750 1065 742 1065 746 b 1058 815 1063 772 1060 793 b 1047 879 1057 836 1053 858 b 1035 913 1044 890 1040 901 b 1019 929 1031 918 1026 925 b 950 960 999 944 978 960 b 943 960 947 960 946 960 b 851 972 913 967 882 969 b 825 972 843 974 833 972 b 779 957 808 971 793 965 b 754 922 767 949 757 938 b 746 883 750 910 749 896 b 736 815 742 860 740 838 b 713 682 728 771 719 726 b 694 581 706 649 700 615 b 689 567 693 576 692 574 b 683 590 686 576 685 583 z "},"N":{"ha":1044,"x_min":0,"x_max":0,"o":"m 294 967 b 207 954 265 964 236 960 b 131 939 181 950 156 946 b 106 928 121 936 114 932 b 29 842 74 904 49 876 b 15 803 22 829 17 817 b 6 719 10 775 6 747 b 10 660 6 700 7 679 b 26 592 13 636 18 614 b 46 557 32 579 39 568 b 71 539 51 547 61 540 b 108 535 83 538 96 535 b 149 538 122 535 136 538 b 199 551 167 539 183 544 b 215 563 204 554 211 557 b 242 622 229 579 242 599 b 242 676 242 640 242 658 b 246 710 242 688 243 699 b 282 738 251 728 264 736 b 339 717 303 738 322 729 b 350 694 344 711 349 704 b 356 669 351 686 353 678 b 358 633 360 658 360 646 b 356 521 357 596 354 558 b 356 431 356 492 356 461 b 350 176 354 346 356 261 b 350 157 350 169 350 164 b 351 97 344 138 349 117 b 388 36 356 72 364 50 b 393 32 390 35 392 33 b 414 24 400 28 407 25 b 496 11 442 18 468 13 b 521 10 504 11 513 11 b 604 57 551 6 589 22 b 618 114 611 75 615 94 b 618 217 622 149 621 183 b 608 304 617 246 611 275 b 599 386 604 332 601 358 b 593 417 597 396 596 407 b 575 479 588 438 581 458 b 565 517 572 492 568 504 b 574 529 564 522 568 528 b 590 524 579 532 588 529 b 596 508 592 518 594 513 b 607 469 600 496 604 482 b 624 415 613 451 618 433 b 640 365 628 399 633 382 b 664 307 649 346 656 326 b 696 207 678 275 688 242 b 717 119 703 178 710 149 b 738 69 722 101 728 85 b 779 26 747 50 761 36 b 785 24 782 25 783 25 b 901 -1 822 7 861 -1 b 972 42 932 0 956 14 b 988 78 979 53 983 65 b 999 156 994 104 996 129 b 1003 246 1001 185 1001 215 b 1000 325 1003 272 1003 299 b 992 460 997 371 996 415 b 986 542 989 488 988 514 b 985 550 985 544 985 547 b 983 594 982 564 982 579 b 986 624 985 604 986 614 b 982 722 985 656 983 689 b 978 810 981 751 979 781 b 964 904 976 842 972 874 b 953 938 961 915 957 926 b 913 964 944 954 932 963 b 857 972 894 964 875 967 b 840 975 851 974 846 974 b 774 944 815 979 788 969 b 767 929 771 939 769 935 b 751 860 757 907 753 883 b 749 810 750 843 750 826 b 757 654 746 757 746 706 b 760 642 758 650 758 646 b 767 594 761 626 764 610 b 775 539 769 576 772 557 b 767 525 775 533 771 526 b 750 532 760 524 753 525 b 747 543 749 536 747 540 b 738 604 743 564 740 583 b 731 650 736 619 733 635 b 717 728 726 676 722 703 b 667 864 706 775 690 821 b 614 931 654 890 636 913 b 579 951 603 939 590 944 b 501 972 556 967 531 974 b 457 969 488 971 472 969 b 447 969 454 969 450 969 b 390 972 428 971 410 972 b 294 967 358 971 326 969 z "},"O":{"ha":783,"x_min":0,"x_max":0,"o":"m 447 554 b 442 578 446 563 443 571 b 425 607 440 589 433 599 b 390 621 417 615 406 621 b 343 561 375 621 346 601 b 336 536 343 553 339 544 b 332 513 335 528 332 521 b 332 489 332 504 332 497 b 332 489 332 489 332 489 b 331 461 332 479 331 471 b 394 368 331 454 331 361 b 413 378 401 368 408 374 b 431 401 421 385 428 392 b 435 414 432 406 433 410 b 443 446 438 425 442 435 b 449 494 446 461 449 478 b 449 513 447 500 447 506 b 447 554 451 526 450 540 z m 750 664 b 743 700 749 676 747 688 b 633 894 725 771 689 836 b 493 971 597 933 551 960 b 435 979 474 975 454 978 b 340 981 403 982 372 982 b 297 968 325 979 310 978 b 283 964 294 965 289 964 b 215 939 258 960 236 950 b 144 883 189 922 167 903 b 106 831 128 867 115 850 b 57 696 83 788 69 742 b 38 610 50 667 43 638 b 26 540 33 586 29 564 b 25 482 25 521 25 500 b 31 388 26 449 25 418 b 44 315 35 363 39 339 b 68 233 51 288 60 260 b 94 160 74 208 83 183 b 169 74 110 126 136 97 b 254 28 196 56 224 40 b 386 1 296 10 340 1 b 542 29 440 0 493 11 b 629 90 579 43 608 63 b 719 278 671 149 703 211 b 732 332 724 296 728 314 b 746 432 739 364 744 397 b 747 446 746 436 746 442 b 756 540 750 478 754 508 b 750 664 757 582 754 624 z m 524 535 b 521 493 521 521 521 507 b 511 385 522 457 517 421 b 490 313 507 360 497 336 b 481 283 488 303 485 293 b 442 229 475 264 460 246 b 399 207 431 219 417 208 b 254 421 254 192 256 403 b 258 482 254 440 257 461 b 258 482 258 482 258 482 b 258 536 258 500 258 518 b 268 589 260 554 264 571 b 283 647 274 608 282 628 b 389 782 289 739 357 783 b 468 751 426 781 451 768 b 506 685 488 731 503 710 b 518 631 508 667 515 650 b 524 535 525 599 529 567 z "},"P":{"ha":860,"x_min":0,"x_max":0,"o":"m 429 965 b 365 965 408 965 386 965 b 257 965 329 965 293 965 b 179 954 231 964 204 961 b 142 943 167 950 154 947 b 93 922 124 939 108 932 b 42 863 69 908 51 889 b 25 811 35 846 29 829 b 6 701 17 775 8 738 b 14 628 4 676 7 651 b 28 592 18 615 22 604 b 96 542 40 561 64 544 b 171 549 122 539 147 543 b 192 556 178 550 185 551 b 218 588 206 561 214 572 b 222 619 221 599 222 608 b 224 640 222 626 222 633 b 225 694 229 658 228 676 b 233 746 222 713 228 729 b 242 758 235 750 239 756 b 275 769 251 765 263 769 b 308 738 294 769 307 757 b 307 728 308 735 307 731 b 304 574 306 676 304 625 b 301 392 303 513 303 451 b 300 351 301 378 299 364 b 301 282 300 328 300 304 b 299 229 301 264 301 246 b 293 153 296 204 296 178 b 289 71 289 125 289 99 b 332 13 289 43 303 22 b 339 11 335 11 336 11 b 417 0 364 3 390 -3 b 433 0 422 0 428 0 b 444 -1 438 0 440 0 b 492 -4 460 -7 476 -6 b 535 43 517 -1 535 10 b 535 67 535 51 535 58 b 529 129 533 88 532 108 b 521 226 525 161 524 194 b 522 324 518 258 517 290 b 526 358 525 335 525 347 b 529 371 526 363 528 367 b 543 381 532 378 536 382 b 563 379 550 381 556 381 b 663 385 596 374 629 376 b 768 451 704 396 739 418 b 833 567 796 486 818 524 b 850 629 842 586 847 607 b 828 785 854 683 847 735 b 788 860 818 811 804 836 b 736 919 774 882 756 901 b 656 960 713 940 686 954 b 601 964 638 963 619 963 b 429 965 544 965 486 965 b 429 965 429 965 429 965 z m 564 788 b 619 767 585 788 603 778 b 638 749 626 761 632 756 b 657 710 649 739 656 725 b 613 581 663 660 649 617 b 544 554 594 563 571 556 b 524 572 535 554 525 563 b 524 590 524 578 522 585 b 525 635 524 606 525 621 b 529 765 526 679 528 722 b 531 786 529 772 529 778 b 564 788 543 788 553 789 z "},"Q":{"ha":783,"x_min":0,"x_max":0,"o":"m 818 -62 b 789 -46 808 -56 799 -50 b 761 -36 779 -42 769 -39 b 713 -19 744 -31 728 -25 b 635 14 686 -8 660 3 b 576 44 619 21 594 35 b 629 90 597 57 615 72 b 719 278 671 149 703 211 b 732 332 724 296 728 314 b 746 432 739 364 744 397 b 747 446 746 436 746 442 b 756 540 750 478 754 508 b 750 664 757 582 754 624 b 743 700 749 676 747 688 b 633 894 725 771 689 836 b 493 971 597 933 551 960 b 435 979 474 975 454 978 b 340 981 403 982 372 982 b 297 968 325 979 310 978 b 283 964 294 965 289 964 b 215 939 258 960 236 950 b 144 883 189 922 167 903 b 106 831 128 867 115 850 b 57 696 83 788 69 742 b 38 610 50 667 43 638 b 26 540 33 586 29 564 b 25 482 25 521 25 500 b 31 388 26 449 25 418 b 44 315 35 363 39 339 b 68 233 51 288 60 260 b 94 160 74 208 83 183 b 169 74 110 126 136 97 b 254 28 196 56 224 40 b 386 1 296 10 340 1 b 392 1 388 1 389 1 b 413 -72 393 -25 400 -49 b 464 -137 426 -97 443 -119 b 544 -197 489 -161 517 -179 b 618 -232 568 -212 593 -224 b 653 -244 629 -236 642 -239 b 726 -257 676 -254 701 -257 b 776 -243 744 -256 761 -251 b 839 -150 821 -222 821 -196 b 843 -135 840 -144 842 -139 b 818 -62 849 -106 840 -81 z m 254 421 b 258 482 254 440 257 461 b 258 482 258 482 258 482 b 258 536 258 500 258 518 b 268 589 260 554 264 571 b 283 647 274 608 282 628 b 389 782 289 739 357 783 b 468 751 426 781 451 768 b 506 685 488 731 503 710 b 518 631 508 667 515 650 b 524 535 525 599 529 567 b 521 493 521 521 521 507 b 511 385 522 457 517 421 b 490 313 507 360 497 336 b 481 283 488 303 485 293 b 442 229 475 264 460 246 b 399 207 431 219 417 208 b 254 421 254 192 256 403 z "},"R":{"ha":928,"x_min":0,"x_max":0,"o":"m 719 478 b 726 479 722 479 724 479 b 781 494 746 478 764 485 b 849 554 807 510 829 529 b 858 572 853 560 856 565 b 874 661 869 601 874 631 b 871 701 874 675 872 689 b 832 826 867 746 853 788 b 814 857 826 838 819 847 b 751 928 797 885 776 908 b 675 963 729 946 704 960 b 624 967 658 965 640 967 b 497 968 581 968 539 968 b 464 965 486 968 475 967 b 374 960 433 961 403 957 b 336 963 361 961 349 963 b 254 967 308 964 281 964 b 160 961 222 971 190 968 b 138 957 151 960 144 958 b 67 906 107 949 85 929 b 39 856 56 890 47 872 b 7 713 19 810 10 763 b 8 646 7 690 7 668 b 15 593 8 628 13 610 b 39 564 19 579 26 569 b 53 558 43 563 47 560 b 104 544 69 551 88 547 b 119 544 110 543 115 543 b 185 588 147 549 169 564 b 196 611 189 594 194 603 b 207 683 200 635 207 658 b 210 717 206 694 208 706 b 244 767 213 740 224 756 b 260 774 249 769 254 772 b 321 774 279 782 300 782 b 328 744 325 764 328 754 b 329 719 328 736 329 728 b 329 711 331 717 329 714 b 328 665 329 696 328 681 b 324 411 326 581 328 496 b 324 279 322 367 322 324 b 317 175 324 244 321 210 b 311 74 317 163 310 86 b 315 47 313 65 314 56 b 335 22 319 36 325 28 b 378 8 347 13 363 8 b 431 4 396 8 413 7 b 444 3 435 3 440 3 b 513 13 468 1 490 7 b 546 36 528 15 538 24 b 556 72 553 47 556 60 b 553 111 556 85 554 99 b 546 200 550 140 546 169 b 544 214 546 204 546 210 b 542 286 542 239 542 263 b 543 307 542 293 542 301 b 546 339 546 318 546 329 b 551 371 546 350 547 360 b 567 381 553 378 560 382 b 603 363 582 381 594 374 b 631 301 617 343 626 324 b 646 224 635 275 642 250 b 669 117 654 188 661 151 b 682 65 674 99 676 81 b 757 8 694 31 719 11 b 817 11 776 6 797 4 b 826 13 819 13 824 13 b 854 15 836 14 846 14 b 896 35 869 18 883 24 b 911 78 910 46 915 60 b 897 122 907 93 903 108 b 857 229 883 158 871 194 b 807 349 840 269 824 310 b 721 453 789 392 761 428 b 710 461 717 456 714 460 b 719 478 711 474 714 476 z m 664 747 b 681 707 675 736 679 722 b 629 576 685 656 668 611 b 621 569 626 574 624 571 b 568 556 604 561 586 556 b 546 576 556 556 547 564 b 547 633 546 596 547 614 b 550 665 549 644 550 654 b 550 767 550 700 550 733 b 551 788 551 774 551 779 b 664 747 599 797 635 781 z "},"S":{"ha":674,"x_min":0,"x_max":0,"o":"m 250 207 b 299 207 267 210 282 210 b 315 204 304 206 310 204 b 357 264 346 206 367 236 b 347 288 354 272 351 281 b 313 326 338 303 325 315 b 297 339 307 331 303 335 b 211 383 272 363 243 376 b 163 388 194 386 179 389 b 113 374 146 385 129 381 b 28 279 72 354 43 324 b 18 192 18 250 15 221 b 31 131 19 171 22 150 b 156 0 56 69 96 25 b 200 -18 171 -7 185 -12 b 289 -35 229 -28 258 -33 b 371 -32 315 -36 343 -36 b 468 -15 404 -29 436 -24 b 546 18 496 -8 522 4 b 590 54 563 28 576 40 b 657 197 626 94 647 143 b 633 342 665 249 657 296 b 617 369 628 351 622 360 b 524 485 590 413 558 450 b 503 504 518 492 510 497 b 403 568 471 528 436 549 b 383 581 396 572 389 576 b 321 639 363 600 342 619 b 306 658 314 644 310 651 b 283 714 294 675 286 693 b 306 778 281 740 288 761 b 321 783 310 782 315 783 b 350 769 333 785 343 781 b 361 736 356 758 358 747 b 372 685 364 719 367 701 b 422 635 381 658 397 643 b 506 633 450 628 478 628 b 558 701 543 643 556 669 b 558 728 558 710 558 719 b 554 792 557 750 556 771 b 547 824 553 803 553 814 b 544 836 544 826 546 832 b 513 915 540 865 531 893 b 400 989 483 954 444 976 b 300 990 367 997 333 996 b 181 947 257 983 218 967 b 85 818 129 919 99 875 b 76 707 75 782 75 744 b 108 596 79 668 90 631 b 156 532 119 571 136 550 b 176 513 163 525 169 519 b 226 467 193 496 210 481 b 347 369 267 435 307 403 b 407 300 371 350 392 328 b 410 196 426 265 426 231 b 342 146 394 167 371 151 b 267 150 317 140 292 143 b 238 181 251 154 240 164 b 238 203 236 188 236 194 b 250 207 242 204 246 207 z "},"T":{"ha":832,"x_min":0,"x_max":0,"o":"m 326 668 b 322 350 326 563 328 456 b 319 242 321 314 319 278 b 319 132 318 206 318 168 b 332 63 319 108 324 85 b 401 10 344 29 368 13 b 451 13 418 8 435 8 b 472 14 458 14 465 14 b 511 18 486 15 499 17 b 526 21 517 18 521 19 b 556 60 544 28 553 42 b 560 81 557 67 557 74 b 565 133 564 99 567 117 b 558 192 564 153 561 172 b 553 260 556 215 553 238 b 549 424 551 315 554 369 b 540 533 546 461 542 497 b 531 654 539 574 535 614 b 524 714 528 674 526 694 b 540 731 522 728 528 732 b 547 729 543 731 546 731 b 613 715 568 722 590 719 b 713 724 646 710 679 713 b 778 750 735 731 757 740 b 815 775 792 757 804 765 b 838 819 831 786 839 800 b 838 867 836 835 838 851 b 833 894 838 876 836 885 b 808 956 825 915 817 936 b 794 978 804 964 800 971 b 758 994 786 990 774 994 b 704 976 739 996 721 990 b 631 940 683 958 657 947 b 546 921 603 933 574 926 b 526 921 540 919 533 919 b 481 931 511 924 496 926 b 367 961 443 942 404 954 b 269 972 335 968 303 974 b 225 968 256 971 240 969 b 135 936 192 964 163 954 b 110 919 126 931 118 924 b 49 868 86 906 67 888 b 0 717 13 824 -6 774 b 25 658 1 693 10 675 b 71 631 39 644 54 636 b 138 614 93 622 115 619 b 156 614 143 614 150 614 b 197 639 175 613 188 622 b 204 654 200 643 201 649 b 215 686 207 665 211 676 b 238 728 219 703 228 715 b 265 743 246 736 254 743 b 276 744 269 743 272 743 b 294 742 283 746 289 744 b 326 715 307 735 318 728 b 326 668 326 700 326 685 z "},"U":{"ha":921,"x_min":0,"x_max":0,"o":"m 553 353 b 565 806 551 363 564 778 b 563 857 565 822 563 840 b 554 894 561 869 558 882 b 482 964 543 931 519 954 b 414 972 453 971 443 975 b 349 971 392 971 369 971 b 263 971 319 971 290 971 b 161 963 228 971 194 968 b 113 949 146 960 129 956 b 18 839 63 929 32 892 b 7 754 11 811 8 782 b 14 643 4 717 8 679 b 63 569 19 611 36 586 b 115 549 78 558 96 553 b 163 556 132 546 147 549 b 194 589 178 563 189 574 b 204 631 200 603 203 615 b 208 681 206 647 207 664 b 243 728 210 703 222 719 b 297 739 261 736 278 738 b 321 715 311 739 319 729 b 325 654 322 694 321 675 b 324 640 325 650 325 644 b 322 603 324 628 322 615 b 321 351 322 518 321 435 b 329 215 321 306 322 261 b 346 133 333 188 339 160 b 369 83 350 115 358 99 b 451 11 390 53 418 29 b 540 -15 479 -3 510 -10 b 638 -7 574 -21 606 -18 b 754 63 682 7 721 29 b 797 111 769 78 783 94 b 843 201 819 138 835 168 b 864 344 854 249 861 297 b 868 457 867 382 867 419 b 869 463 868 458 868 461 b 876 572 871 499 874 535 b 881 685 878 610 881 647 b 881 876 882 749 882 813 b 876 914 881 889 879 901 b 832 960 871 938 857 954 b 778 968 814 964 796 967 b 685 953 746 968 715 961 b 668 946 679 951 674 949 b 638 907 651 938 642 924 b 633 874 635 896 633 885 b 635 824 633 857 633 840 b 638 807 635 818 635 811 b 642 785 640 799 642 792 b 643 713 642 760 643 736 b 640 672 642 699 642 686 b 636 582 636 643 636 613 b 636 553 636 572 636 563 b 633 503 635 536 633 519 b 632 486 632 497 632 492 b 628 438 631 469 628 454 b 625 339 628 404 628 372 b 553 353 636 243 551 190 z "},"V":{"ha":965,"x_min":0,"x_max":0,"o":"m 319 744 b 332 665 324 718 328 692 b 357 525 340 618 347 571 b 389 364 367 471 378 417 b 426 213 399 313 413 263 b 446 136 433 188 442 163 b 461 76 450 115 456 96 b 493 28 467 57 478 42 b 511 19 499 24 504 19 b 547 15 524 18 535 17 b 586 13 560 14 574 14 b 688 7 619 10 653 6 b 751 17 710 7 731 11 b 772 26 758 19 765 22 b 828 83 796 40 814 60 b 840 111 833 92 839 101 b 850 158 843 128 847 143 b 869 292 857 203 864 247 b 879 365 874 317 876 340 b 896 468 885 399 890 433 b 910 556 900 497 906 526 b 925 657 917 589 922 624 b 931 701 926 672 928 686 b 936 761 932 721 935 742 b 938 843 938 789 938 817 b 932 899 938 863 935 881 b 925 922 931 906 928 914 b 881 960 917 943 903 956 b 853 963 871 961 863 963 b 790 965 832 963 811 963 b 742 967 774 967 758 968 b 685 918 711 965 692 949 b 676 847 678 896 678 871 b 672 694 675 796 676 746 b 668 608 671 665 669 636 b 664 450 667 556 665 503 b 657 339 664 413 661 376 b 658 272 656 317 656 294 b 660 232 660 258 660 246 b 644 215 660 222 656 217 b 633 226 639 217 635 219 b 629 253 632 235 631 244 b 629 269 629 258 629 264 b 621 340 625 293 622 317 b 613 433 617 371 614 403 b 613 450 613 439 613 444 b 606 529 610 476 607 503 b 601 631 604 563 603 597 b 597 721 600 660 600 690 b 593 813 594 751 596 782 b 582 894 589 840 586 867 b 575 921 582 903 578 913 b 528 960 567 943 551 956 b 511 963 522 961 517 963 b 460 961 494 963 478 963 b 413 963 444 961 428 961 b 356 965 393 964 375 965 b 258 967 324 967 290 967 b 176 958 231 967 204 964 b 78 914 140 951 108 935 b 18 839 51 894 33 868 b 3 744 4 810 -1 778 b 6 707 6 732 6 719 b 19 651 6 688 10 668 b 38 622 25 642 31 632 b 75 594 46 608 60 599 b 108 586 86 592 97 589 b 196 604 140 579 169 586 b 222 640 210 613 219 624 b 225 665 224 649 226 657 b 231 728 225 686 226 707 b 238 757 232 738 233 747 b 276 782 243 774 258 783 b 303 778 285 781 294 779 b 319 744 313 767 318 757 z "},"W":{"ha":1372,"x_min":0,"x_max":0,"o":"m 642 332 b 635 415 636 360 636 388 b 622 531 633 454 625 492 b 615 617 619 558 615 588 b 615 724 617 651 617 688 b 611 833 615 760 613 796 b 610 846 611 838 611 842 b 599 911 607 868 603 889 b 567 956 596 932 585 946 b 540 964 558 958 549 963 b 476 972 519 969 497 972 b 428 972 460 972 443 972 b 228 968 361 972 294 975 b 143 951 199 965 171 961 b 42 858 96 936 63 904 b 26 810 35 843 29 826 b 21 785 25 801 24 793 b 6 661 8 744 4 703 b 17 601 7 640 11 621 b 75 556 25 574 47 557 b 132 561 94 556 114 556 b 189 581 151 565 171 571 b 204 599 196 585 201 590 b 211 650 211 614 214 632 b 213 692 208 664 210 678 b 253 744 218 714 232 733 b 283 750 263 750 272 751 b 339 686 311 742 335 715 b 342 643 340 672 342 657 b 343 617 343 635 343 625 b 350 542 346 592 349 567 b 356 468 353 518 354 493 b 361 422 357 453 358 438 b 368 356 363 400 365 378 b 374 313 369 342 371 326 b 385 233 376 286 381 260 b 399 138 389 201 393 169 b 410 97 400 124 406 110 b 426 58 415 83 422 72 b 458 22 431 42 443 29 b 526 11 481 14 503 8 b 604 11 553 14 579 15 b 699 10 636 7 667 7 b 739 22 713 11 726 15 b 758 47 750 28 756 36 b 768 99 763 64 765 82 b 778 176 772 125 774 150 b 792 290 782 214 788 253 b 803 393 796 325 799 358 b 807 450 804 411 806 431 b 814 521 810 474 811 497 b 819 611 815 550 817 581 b 822 622 819 615 821 618 b 833 624 826 624 831 624 b 849 613 843 624 846 621 b 851 596 849 607 850 601 b 860 482 856 558 858 519 b 863 428 860 464 861 446 b 868 371 864 408 867 390 b 876 313 871 351 874 332 b 889 224 881 283 886 253 b 915 88 894 178 904 132 b 926 54 918 76 922 65 b 961 19 933 38 946 25 b 993 8 972 15 983 11 b 1082 1 1022 3 1051 0 b 1103 1 1089 1 1096 1 b 1149 6 1118 3 1133 4 b 1189 14 1163 7 1176 10 b 1239 67 1215 24 1233 39 b 1253 124 1243 86 1249 106 b 1276 293 1264 181 1269 236 b 1286 382 1281 322 1283 353 b 1292 426 1288 397 1290 411 b 1303 522 1294 458 1299 490 b 1308 583 1304 543 1306 563 b 1313 625 1310 597 1311 611 b 1324 710 1317 653 1319 682 b 1333 781 1326 733 1329 757 b 1349 872 1338 811 1343 842 b 1349 924 1351 889 1351 907 b 1331 958 1346 938 1340 950 b 1319 964 1328 961 1324 964 b 1276 968 1306 967 1290 969 b 1219 964 1257 967 1238 967 b 1150 958 1196 961 1174 960 b 1122 956 1140 958 1132 957 b 1081 901 1096 950 1076 935 b 1081 894 1081 899 1081 897 b 1081 882 1081 890 1081 886 b 1075 803 1079 856 1076 829 b 1072 626 1074 744 1075 685 b 1068 485 1069 579 1072 532 b 1061 376 1064 449 1064 413 b 1061 369 1061 374 1061 372 b 1054 303 1058 347 1057 325 b 1050 265 1053 290 1051 278 b 1042 260 1049 263 1047 258 b 1039 268 1040 263 1039 265 b 1033 301 1036 279 1035 290 b 1028 351 1031 318 1029 335 b 1021 413 1025 372 1022 392 b 1015 478 1018 433 1018 456 b 1008 594 1011 517 1008 556 b 1006 681 1007 624 1007 651 b 1000 800 1001 721 1001 761 b 996 842 1000 814 997 828 b 956 886 992 865 979 881 b 946 889 953 888 949 889 b 921 893 938 890 929 892 b 854 896 899 899 876 897 b 813 893 840 894 826 893 b 760 889 794 892 776 892 b 713 851 738 885 721 872 b 704 825 710 843 707 835 b 688 718 694 790 692 754 b 682 663 686 700 685 681 b 675 578 679 635 678 606 b 674 565 674 574 674 569 b 667 471 672 533 669 501 b 665 414 667 451 667 432 b 646 322 663 383 656 353 b 642 332 644 325 643 329 z "},"X":{"ha":982,"x_min":0,"x_max":0,"o":"m 575 656 b 567 747 572 686 569 717 b 556 838 564 778 558 807 b 549 901 553 858 549 881 b 546 921 549 908 547 914 b 513 953 543 940 531 950 b 444 957 490 956 468 957 b 375 958 422 957 399 957 b 283 960 344 961 314 961 b 189 953 251 958 221 956 b 113 936 163 950 138 944 b 54 892 89 926 69 913 b 28 844 43 878 33 863 b 8 774 21 821 14 797 b 4 728 4 760 1 743 b 6 682 6 713 7 697 b 14 638 6 667 8 651 b 54 590 21 617 35 600 b 93 576 67 583 81 579 b 122 575 103 574 113 574 b 172 592 140 578 157 583 b 214 658 199 606 213 628 b 214 679 214 665 213 672 b 217 735 218 697 217 717 b 219 758 217 743 215 751 b 256 774 229 767 243 771 b 299 764 272 779 286 775 b 313 743 306 758 308 751 b 365 626 328 704 346 665 b 388 581 372 611 381 596 b 401 546 392 569 397 558 b 414 519 406 538 410 529 b 418 461 424 501 428 482 b 406 431 413 451 410 440 b 386 390 400 417 396 403 b 379 376 383 386 381 381 b 326 257 361 336 343 296 b 286 168 313 228 299 199 b 265 104 278 147 271 126 b 275 54 261 86 265 69 b 326 18 286 35 306 24 b 389 10 347 14 368 11 b 435 7 404 8 419 7 b 465 6 444 6 456 6 b 538 47 496 8 519 22 b 553 81 544 57 549 69 b 571 154 561 106 567 129 b 586 243 576 185 582 214 b 600 356 592 281 596 318 b 604 376 601 363 603 369 b 614 388 606 381 608 386 b 619 376 617 385 618 381 b 640 269 629 342 638 306 b 658 149 646 229 651 189 b 675 65 664 121 669 93 b 721 14 681 39 697 22 b 764 6 735 8 749 6 b 835 13 788 4 811 8 b 899 22 857 15 878 19 b 947 56 921 25 938 36 b 960 144 963 83 965 114 b 935 203 956 165 944 185 b 917 238 928 214 921 226 b 867 349 901 276 885 313 b 826 428 853 375 839 401 b 819 458 821 438 818 447 b 821 476 819 464 821 471 b 840 553 824 503 831 528 b 885 679 854 594 869 638 b 925 778 897 713 911 746 b 943 840 933 799 939 819 b 942 886 946 856 947 872 b 872 949 931 921 910 943 b 821 954 856 951 838 954 b 810 956 817 954 814 954 b 735 954 785 958 760 960 b 719 953 731 953 725 953 b 679 949 706 951 692 950 b 658 917 668 939 661 929 b 650 878 656 903 651 890 b 646 813 649 856 647 833 b 644 800 646 808 646 804 b 632 718 640 772 636 746 b 615 611 626 683 619 647 b 610 586 615 603 613 594 b 600 578 608 583 604 581 b 589 579 597 578 594 579 b 575 656 581 606 578 631 z "},"Y":{"ha":956,"x_min":0,"x_max":0,"o":"m 603 658 b 589 714 597 678 593 696 b 549 883 576 771 567 828 b 522 940 546 906 533 922 b 496 960 517 950 507 957 b 465 963 486 963 475 963 b 438 961 456 961 447 961 b 358 963 411 961 385 961 b 190 957 301 963 246 961 b 136 949 172 956 154 953 b 43 885 96 940 65 918 b 17 824 31 865 22 844 b 6 768 11 806 8 786 b 13 668 1 733 6 700 b 22 633 15 656 19 644 b 63 582 29 611 42 593 b 154 561 92 565 121 558 b 164 564 157 563 161 563 b 200 594 181 569 192 579 b 214 644 207 610 211 628 b 233 722 218 671 224 697 b 265 754 240 738 250 747 b 289 763 272 758 281 761 b 318 758 299 765 308 764 b 360 714 336 747 349 732 b 429 558 386 664 411 613 b 446 532 432 549 436 539 b 449 529 447 532 449 531 b 464 496 450 517 458 507 b 489 438 471 475 478 456 b 504 390 497 422 501 407 b 513 283 510 354 511 319 b 508 128 514 232 513 179 b 506 88 507 114 507 101 b 506 65 506 81 504 72 b 553 11 510 35 522 17 b 603 6 569 8 586 7 b 657 7 621 6 639 6 b 690 11 668 7 681 8 b 729 38 707 14 721 22 b 740 74 735 49 739 61 b 744 157 744 101 744 129 b 746 344 744 219 744 282 b 749 403 746 364 747 383 b 756 442 749 417 750 429 b 761 456 758 446 760 451 b 822 607 779 507 799 558 b 888 732 843 650 865 690 b 940 831 906 765 924 797 b 961 892 950 850 957 871 b 921 956 967 924 953 947 b 913 957 918 956 915 957 b 865 961 897 958 881 961 b 768 963 832 963 800 963 b 747 963 761 963 754 963 b 724 949 738 961 731 957 b 713 928 719 942 715 935 b 668 788 697 881 682 833 b 622 632 653 735 638 683 b 617 614 621 628 619 622 b 603 658 611 632 606 646 z "},"Z":{"ha":760,"x_min":0,"x_max":0,"o":"m 476 675 b 422 574 458 642 440 608 b 367 464 404 538 385 501 b 267 267 333 399 299 333 b 229 200 254 244 243 221 b 214 169 224 190 218 181 b 204 111 206 151 201 132 b 213 44 206 89 210 67 b 215 33 213 40 214 38 b 240 17 221 24 228 17 b 257 15 246 17 251 15 b 304 10 272 13 289 10 b 438 8 349 8 393 8 b 557 11 476 10 517 11 b 636 11 583 11 610 11 b 675 13 650 11 663 11 b 715 42 694 14 707 24 b 721 61 718 47 719 54 b 726 90 724 71 724 82 b 732 143 732 108 733 125 b 731 186 732 158 731 172 b 729 207 731 193 731 200 b 693 260 728 232 715 250 b 654 269 681 267 668 269 b 622 265 643 268 633 267 b 496 244 581 261 538 254 b 488 244 494 243 492 244 b 481 265 485 251 483 258 b 492 289 485 272 488 281 b 615 526 532 368 574 447 b 696 693 643 581 671 636 b 718 754 704 713 713 733 b 722 793 721 767 724 779 b 722 810 722 799 722 804 b 719 897 728 839 724 868 b 711 928 719 907 715 918 b 689 951 708 939 700 947 b 674 957 685 954 679 956 b 624 961 657 963 640 961 b 506 964 585 961 546 958 b 431 969 482 968 456 968 b 333 969 399 969 367 969 b 296 968 321 969 308 969 b 232 961 275 967 253 964 b 178 953 214 960 196 957 b 108 913 151 946 128 932 b 56 836 88 890 69 865 b 7 674 32 785 14 731 b 6 614 4 654 4 635 b 15 578 7 601 10 589 b 49 543 24 563 33 550 b 165 564 90 519 140 533 b 194 613 178 579 186 596 b 224 672 204 633 213 653 b 275 714 235 693 251 707 b 335 724 294 719 314 722 b 385 725 351 724 368 724 b 435 725 401 728 418 728 b 483 717 451 722 467 719 b 499 713 488 717 492 715 b 476 675 490 699 483 688 z "},"[":{"ha":449,"x_min":0,"x_max":0,"o":"m 250 922 b 285 921 261 922 274 922 b 335 919 301 921 318 919 b 357 924 342 919 350 921 b 378 947 368 926 375 936 b 378 960 379 951 378 956 b 369 1021 378 981 374 1001 b 344 1047 365 1033 357 1043 b 310 1054 333 1051 322 1054 b 199 1053 272 1053 235 1053 b 157 1047 185 1051 169 1050 b 119 1038 144 1044 132 1040 b 63 975 88 1029 69 1007 b 54 897 57 949 56 924 b 58 628 53 808 51 718 b 61 471 63 576 63 524 b 60 279 60 407 60 343 b 57 129 58 229 58 179 b 54 92 57 117 56 104 b 57 25 54 69 56 47 b 68 -62 58 -4 63 -33 b 78 -103 71 -76 74 -90 b 113 -137 83 -121 94 -132 b 144 -146 122 -142 133 -144 b 222 -150 171 -149 196 -150 b 285 -150 243 -149 264 -150 b 318 -147 297 -150 307 -149 b 350 -108 336 -143 351 -132 b 350 -83 350 -100 349 -92 b 350 -46 353 -71 347 -58 b 346 -33 351 -42 349 -37 b 336 -21 343 -29 339 -25 b 313 -8 331 -12 322 -10 b 303 -8 310 -8 306 -8 b 251 -7 285 -8 268 -7 b 228 8 240 -7 233 -1 b 225 15 226 10 226 13 b 214 60 219 31 217 44 b 210 140 208 86 208 114 b 213 542 211 274 208 408 b 219 700 214 594 217 647 b 219 708 219 703 219 706 b 226 781 221 732 224 757 b 232 857 228 806 229 832 b 236 894 233 869 233 882 b 240 919 236 903 239 911 b 250 922 244 921 247 922 z "},"a":{"ha":638,"x_min":0,"x_max":0,"o":"m 353 165 b 357 140 354 157 356 149 b 379 65 364 115 372 90 b 408 31 383 50 394 39 b 449 14 421 24 435 18 b 503 7 467 10 485 8 b 547 15 518 6 533 8 b 588 49 563 24 576 35 b 610 115 603 68 611 90 b 607 161 608 131 608 146 b 600 222 604 182 603 201 b 593 310 597 251 593 281 b 592 319 593 313 592 317 b 585 401 590 347 588 375 b 579 479 583 428 582 454 b 575 529 579 496 578 513 b 564 608 572 556 568 582 b 547 722 560 647 554 685 b 522 818 540 756 533 788 b 471 914 510 853 494 885 b 436 944 463 926 450 938 b 378 958 418 954 399 960 b 326 953 361 957 343 954 b 261 946 304 950 283 949 b 189 936 238 943 213 938 b 132 904 164 935 146 924 b 106 847 119 888 110 868 b 85 732 94 810 89 771 b 76 633 81 700 79 667 b 65 538 72 601 69 569 b 54 406 60 494 58 450 b 49 328 53 381 51 354 b 38 219 46 292 40 256 b 31 156 35 199 32 176 b 33 75 29 128 28 101 b 69 24 38 53 49 35 b 113 7 83 17 97 11 b 135 4 119 4 128 4 b 168 4 146 3 157 4 b 201 10 179 6 190 7 b 240 54 222 18 235 32 b 244 110 244 72 244 92 b 244 182 244 133 244 158 b 247 194 244 186 246 189 b 296 196 264 194 279 194 b 349 199 313 196 329 197 b 353 165 350 186 351 175 z m 256 371 b 251 382 250 375 251 379 b 260 492 253 418 256 456 b 269 581 264 521 267 551 b 283 690 274 618 278 654 b 286 706 283 696 285 700 b 296 708 289 707 293 707 b 299 704 297 707 299 706 b 301 686 300 699 301 692 b 313 583 304 651 310 618 b 322 486 314 551 319 518 b 322 483 322 485 322 485 b 329 372 325 447 326 410 b 328 368 329 372 328 371 b 256 371 303 365 278 372 z "},"b":{"ha":601,"x_min":0,"x_max":0,"o":"m 497 678 b 521 804 517 718 526 760 b 476 906 515 842 501 876 b 428 943 464 922 449 936 b 353 961 404 953 379 960 b 218 958 308 961 263 964 b 126 944 188 954 157 950 b 72 929 108 940 90 936 b 61 915 67 925 63 921 b 61 900 61 910 61 906 b 60 853 60 885 60 868 b 53 758 57 821 53 789 b 53 138 51 551 51 344 b 56 101 53 125 54 114 b 118 19 61 63 83 36 b 186 4 140 10 163 4 b 286 4 219 4 253 4 b 354 10 310 4 332 6 b 450 49 389 15 421 28 b 486 74 463 57 474 65 b 540 140 511 90 529 113 b 560 194 549 158 554 176 b 578 292 568 226 574 260 b 574 376 581 321 579 349 b 553 442 569 399 564 421 b 421 550 525 497 485 538 b 414 553 419 550 417 551 b 414 568 414 558 414 564 b 497 678 449 603 474 633 z m 254 407 b 257 411 254 408 256 410 b 293 404 269 413 281 407 b 347 342 325 396 340 374 b 342 275 353 319 350 297 b 289 188 331 242 313 214 b 260 168 281 178 271 172 b 253 168 258 168 256 168 b 254 407 254 246 253 329 z m 264 764 b 306 758 278 763 293 763 b 318 754 310 757 314 756 b 326 743 322 753 325 749 b 324 717 326 735 326 725 b 310 688 321 706 317 696 b 281 651 300 675 290 663 b 256 633 275 644 268 639 b 264 764 256 654 246 764 z "},"c":{"ha":618,"x_min":0,"x_max":0,"o":"m 42 300 b 47 260 43 286 44 274 b 68 175 53 232 60 203 b 92 110 74 153 81 131 b 161 44 108 81 129 58 b 226 21 182 36 204 28 b 325 3 258 13 292 6 b 447 14 367 -1 407 1 b 486 39 463 19 475 28 b 547 131 514 64 533 94 b 592 326 571 194 588 258 b 592 342 592 332 592 336 b 589 379 590 354 589 367 b 579 404 588 388 585 396 b 546 431 569 415 560 424 b 492 444 529 439 511 446 b 482 444 489 444 485 444 b 440 440 468 446 454 444 b 403 421 426 436 415 428 b 379 376 388 410 381 394 b 375 314 376 356 375 335 b 367 260 374 294 369 278 b 347 214 364 242 356 228 b 319 203 340 203 332 200 b 306 211 314 206 310 208 b 285 247 294 221 288 233 b 282 285 283 260 282 272 b 276 386 282 318 279 353 b 269 494 272 422 272 458 b 272 571 269 519 272 544 b 283 685 272 608 278 647 b 294 740 285 704 289 722 b 299 757 297 746 297 751 b 306 772 300 763 303 768 b 335 775 313 782 326 783 b 349 754 342 769 346 763 b 361 671 356 726 363 700 b 365 619 361 654 363 636 b 410 565 369 592 383 574 b 465 560 428 560 446 557 b 521 578 485 564 503 569 b 556 615 536 586 549 599 b 567 679 564 636 568 657 b 558 721 565 693 561 707 b 551 756 557 732 554 744 b 494 890 540 804 522 849 b 472 918 489 900 481 911 b 401 956 451 933 428 947 b 375 961 393 958 385 961 b 264 957 339 963 301 964 b 179 932 235 951 207 944 b 125 888 157 922 139 908 b 104 851 118 875 111 864 b 67 751 88 819 76 785 b 44 631 57 711 50 672 b 33 476 38 579 33 528 b 33 460 33 471 33 465 b 42 300 33 406 39 354 z "},"d":{"ha":657,"x_min":0,"x_max":0,"o":"m 56 217 b 60 135 58 190 57 163 b 69 75 63 115 65 94 b 114 24 75 49 90 33 b 132 18 119 21 126 19 b 176 7 147 15 163 13 b 185 6 179 6 182 6 b 275 -1 215 0 244 -1 b 338 6 296 -1 317 1 b 444 47 375 14 413 25 b 471 61 453 51 463 56 b 522 106 492 72 510 86 b 549 151 532 121 542 136 b 607 307 574 201 594 253 b 632 476 619 363 631 419 b 628 600 635 518 633 560 b 624 613 628 604 626 610 b 615 633 618 618 617 625 b 604 671 611 646 608 658 b 575 743 596 696 589 721 b 494 854 553 783 528 821 b 422 914 472 876 447 894 b 382 936 410 924 397 932 b 296 951 354 944 325 951 b 256 954 282 951 269 953 b 156 950 222 957 189 960 b 122 946 144 946 135 944 b 78 928 106 947 88 943 b 56 883 68 914 60 900 b 49 810 51 858 49 835 b 51 753 49 790 50 772 b 53 663 53 724 53 693 b 50 496 50 607 53 551 b 50 383 49 458 50 421 b 56 217 51 328 51 272 z m 306 733 b 315 724 308 731 313 726 b 335 699 322 715 328 707 b 357 654 346 685 353 669 b 378 575 365 628 375 601 b 383 526 381 558 383 543 b 383 453 385 503 385 478 b 378 385 383 431 379 407 b 368 321 376 363 374 342 b 343 249 361 296 354 272 b 325 221 338 239 331 231 b 294 211 318 210 307 210 b 288 218 292 211 289 215 b 285 232 286 222 285 228 b 285 276 285 247 285 261 b 276 413 282 322 279 367 b 275 501 275 442 275 471 b 275 600 275 533 275 567 b 272 667 275 622 276 644 b 272 675 272 669 272 672 b 276 728 274 693 275 710 b 306 733 286 735 296 735 z "},"e":{"ha":596,"x_min":0,"x_max":0,"o":"m 253 607 b 263 689 251 635 258 661 b 281 704 264 700 268 703 b 292 704 285 704 288 704 b 450 707 344 706 397 706 b 476 708 458 707 468 707 b 508 714 488 710 497 711 b 553 758 531 719 547 733 b 556 778 554 765 556 771 b 554 849 556 801 556 825 b 535 919 553 874 546 897 b 496 953 526 936 513 946 b 457 961 483 958 471 961 b 269 957 394 963 332 960 b 190 953 243 956 217 951 b 157 953 179 953 168 953 b 132 950 149 953 140 951 b 83 911 108 947 92 932 b 71 875 78 900 74 888 b 58 793 63 849 63 821 b 50 699 56 761 53 729 b 46 604 49 667 46 635 b 46 408 46 539 46 474 b 47 389 46 401 46 396 b 50 299 50 360 49 329 b 51 271 50 290 50 281 b 57 192 53 244 56 218 b 63 113 60 165 60 139 b 74 53 64 92 67 72 b 143 6 83 24 113 3 b 179 6 156 7 167 7 b 210 3 189 4 200 3 b 274 1 231 1 253 1 b 403 6 317 0 360 3 b 478 26 429 8 454 14 b 525 72 499 36 515 51 b 538 101 531 82 535 92 b 556 169 546 124 553 146 b 556 256 560 199 563 226 b 501 293 549 283 531 296 b 475 289 493 292 483 290 b 401 279 450 285 426 279 b 310 272 371 279 340 275 b 281 271 300 271 290 271 b 261 281 274 271 267 272 b 257 336 260 299 258 317 b 256 357 256 343 256 350 b 263 379 256 364 257 372 b 282 385 269 381 275 383 b 306 388 290 386 297 388 b 431 381 347 389 389 388 b 472 375 444 379 458 376 b 519 401 494 372 511 381 b 525 424 522 408 524 417 b 533 478 528 442 532 460 b 533 539 535 499 535 518 b 501 581 533 560 521 574 b 493 583 499 582 496 582 b 413 593 467 590 439 593 b 288 594 371 594 329 594 b 253 600 276 594 265 596 b 253 607 253 604 253 606 z "},"f":{"ha":565,"x_min":0,"x_max":0,"o":"m 242 671 b 247 679 243 674 244 676 b 269 689 253 686 260 690 b 336 685 292 686 314 685 b 446 683 372 683 410 683 b 479 689 457 683 468 686 b 535 740 507 694 525 713 b 542 775 538 751 540 764 b 543 819 546 790 543 804 b 533 888 544 843 540 865 b 453 953 521 926 496 949 b 425 956 443 954 433 956 b 371 954 407 956 389 956 b 290 949 343 953 317 950 b 167 944 249 947 208 946 b 111 935 147 943 129 940 b 93 928 104 933 99 931 b 63 883 75 918 64 904 b 60 867 61 878 61 872 b 54 825 54 853 54 839 b 57 758 56 803 57 781 b 54 608 60 708 57 658 b 50 529 53 582 50 556 b 50 200 50 419 50 310 b 57 121 50 174 54 147 b 56 94 58 113 58 103 b 56 74 54 88 54 81 b 64 36 57 61 60 49 b 108 -4 71 15 85 0 b 126 -7 114 -6 121 -6 b 186 -3 147 -7 167 -7 b 258 35 214 3 239 13 b 278 76 269 47 276 61 b 276 133 279 96 279 114 b 264 206 272 157 269 182 b 256 314 256 242 256 278 b 257 333 256 321 256 326 b 271 347 258 340 264 346 b 301 350 281 349 292 350 b 401 347 335 349 368 347 b 483 350 429 346 457 346 b 531 392 508 354 525 368 b 533 411 532 399 533 404 b 535 425 535 415 535 421 b 539 506 540 451 539 479 b 529 542 538 518 535 531 b 482 574 521 563 504 572 b 450 572 471 575 461 574 b 353 556 418 567 385 561 b 254 549 321 549 288 546 b 231 557 247 549 239 549 b 242 671 221 596 225 633 z "},"g":{"ha":632,"x_min":0,"x_max":0,"o":"m 36 417 b 40 331 39 389 39 360 b 51 247 42 303 46 275 b 92 126 58 206 71 164 b 114 89 99 114 106 100 b 218 22 140 54 176 32 b 317 10 251 15 283 13 b 435 14 356 8 394 10 b 515 50 465 18 492 29 b 572 144 543 76 561 108 b 586 214 579 167 585 190 b 594 296 589 242 594 268 b 594 353 594 315 594 333 b 592 422 594 376 594 399 b 585 514 589 453 586 483 b 542 578 585 544 569 565 b 511 586 532 582 522 585 b 469 592 497 589 483 590 b 347 581 428 597 388 593 b 319 568 338 578 328 572 b 294 535 307 560 299 549 b 290 451 289 507 285 479 b 338 397 296 424 310 406 b 365 389 346 394 356 392 b 375 386 368 388 372 388 b 392 368 385 383 390 378 b 396 333 393 357 394 344 b 390 267 397 311 394 289 b 361 208 386 244 378 225 b 329 201 353 199 342 197 b 293 225 315 207 303 214 b 265 279 279 240 269 258 b 258 331 261 296 258 313 b 254 454 256 372 254 413 b 256 510 253 472 256 490 b 264 603 257 540 260 572 b 307 750 271 654 283 704 b 358 779 318 771 338 779 b 386 760 371 779 382 772 b 392 733 390 751 392 742 b 392 693 390 719 390 706 b 436 638 394 665 410 647 b 464 633 446 635 454 633 b 514 633 481 633 497 632 b 543 638 524 633 533 635 b 582 686 569 646 582 664 b 582 703 582 692 582 697 b 568 782 581 731 575 756 b 539 849 563 806 554 829 b 526 868 535 856 531 861 b 443 943 506 901 476 925 b 321 968 406 964 363 968 b 256 960 299 967 278 964 b 196 940 235 957 215 950 b 122 876 167 924 143 903 b 58 744 90 838 72 793 b 43 664 51 718 47 692 b 33 563 39 631 33 596 b 33 515 33 546 33 531 b 36 417 33 483 33 450 z "},"h":{"ha":774,"x_min":0,"x_max":0,"o":"m 467 338 b 471 250 468 308 469 279 b 468 206 471 235 468 221 b 464 138 467 183 465 160 b 468 69 463 114 464 92 b 524 7 474 38 492 15 b 550 1 532 4 542 3 b 639 -3 579 -4 610 -3 b 665 1 647 -3 657 -1 b 699 29 681 6 692 15 b 708 61 703 39 706 50 b 714 154 713 92 713 124 b 717 310 717 206 717 258 b 721 621 715 414 713 518 b 725 761 724 668 725 714 b 726 768 725 764 725 765 b 724 861 729 799 726 831 b 694 922 722 885 714 907 b 622 951 675 942 650 951 b 526 953 590 953 558 953 b 515 951 522 953 519 953 b 460 896 485 949 463 926 b 458 875 458 889 458 882 b 460 696 458 815 458 756 b 461 658 460 683 461 671 b 463 597 463 638 464 618 b 424 578 451 585 440 579 b 347 571 399 576 372 575 b 329 567 340 569 335 568 b 318 581 322 569 319 575 b 313 613 314 590 311 601 b 315 699 313 642 314 669 b 321 818 317 738 319 778 b 322 826 321 821 322 824 b 324 882 322 844 325 864 b 276 951 322 914 307 938 b 189 967 249 964 219 969 b 128 960 168 965 149 963 b 90 951 115 958 103 956 b 75 932 81 947 76 942 b 71 878 74 914 72 896 b 63 778 68 844 65 811 b 61 756 63 771 63 763 b 56 649 60 719 57 683 b 50 479 54 592 54 536 b 46 393 49 450 46 422 b 46 265 47 351 46 308 b 46 167 46 233 46 200 b 50 121 46 151 47 136 b 76 44 53 94 63 69 b 110 14 85 32 96 21 b 156 1 124 7 139 1 b 238 10 183 0 210 3 b 293 54 263 17 281 31 b 303 81 297 63 300 71 b 315 176 313 113 314 144 b 317 308 317 219 317 264 b 319 338 317 318 318 328 b 328 351 321 343 324 347 b 371 371 340 363 354 369 b 440 372 394 371 417 372 b 456 372 444 374 450 372 b 467 338 464 358 467 351 z "},"i":{"ha":339,"x_min":0,"x_max":0,"o":"m 57 219 b 63 101 58 186 58 133 b 71 58 64 86 67 72 b 222 11 83 -10 192 14 b 247 13 231 10 239 13 b 256 17 250 14 254 15 b 275 46 265 25 272 33 b 285 117 282 69 288 92 b 282 147 283 126 282 138 b 282 199 282 164 282 182 b 283 238 282 211 285 225 b 283 297 282 257 283 276 b 288 421 285 338 286 379 b 289 568 290 469 289 519 b 285 679 288 606 286 642 b 283 733 285 697 285 715 b 275 835 279 767 275 800 b 272 885 275 851 274 868 b 271 894 272 888 272 892 b 253 946 265 913 261 931 b 240 960 250 953 247 957 b 193 969 225 965 210 971 b 146 963 178 967 161 965 b 88 954 126 960 107 957 b 68 939 78 953 71 947 b 61 921 65 933 64 926 b 54 864 57 903 56 883 b 50 703 53 810 49 757 b 53 518 51 640 49 579 b 54 383 54 472 54 428 b 57 219 56 328 53 274 z "},"j":{"ha":579,"x_min":0,"x_max":0,"o":"m 236 215 b 226 283 226 238 224 260 b 224 326 229 297 228 311 b 221 336 222 329 221 332 b 175 379 215 361 199 374 b 118 378 157 383 138 382 b 53 332 90 371 69 354 b 38 310 47 325 43 317 b 1 194 14 275 4 235 b 17 100 0 161 7 131 b 113 14 32 53 64 24 b 228 -1 150 6 189 3 b 242 -1 232 -3 238 -1 b 278 1 254 0 265 0 b 356 8 303 6 329 4 b 432 33 382 13 408 21 b 507 119 468 53 494 81 b 522 201 515 147 521 174 b 528 315 525 239 528 278 b 526 456 526 363 526 408 b 529 564 528 492 526 528 b 532 658 531 594 532 626 b 535 711 533 676 533 693 b 535 733 535 718 535 726 b 533 775 533 747 533 761 b 532 844 532 799 532 821 b 524 901 532 864 528 882 b 514 924 521 910 517 917 b 481 953 507 938 496 947 b 463 957 475 954 469 957 b 400 964 443 961 422 964 b 357 946 383 964 369 958 b 329 904 344 935 336 921 b 318 844 322 885 318 865 b 319 683 317 790 317 738 b 324 503 324 624 319 564 b 328 385 328 464 326 424 b 329 285 331 351 329 318 b 321 233 329 267 326 250 b 269 185 313 208 296 192 b 236 215 253 190 243 201 z "},"k":{"ha":656,"x_min":0,"x_max":0,"o":"m 294 776 b 289 854 293 803 292 829 b 261 929 286 882 278 907 b 243 947 256 936 250 943 b 183 969 225 960 206 967 b 83 950 149 971 115 964 b 69 931 75 946 69 940 b 65 863 68 908 67 885 b 64 847 65 857 65 853 b 58 767 63 821 60 794 b 54 586 57 707 57 646 b 50 400 51 524 54 461 b 49 296 47 365 49 331 b 46 200 49 264 50 232 b 46 178 46 193 46 185 b 49 142 47 165 49 154 b 57 81 50 121 53 101 b 67 51 60 71 63 61 b 111 11 75 32 90 18 b 183 3 135 3 158 1 b 243 10 203 4 224 7 b 289 36 263 13 279 19 b 297 60 293 43 296 51 b 310 139 304 86 308 113 b 310 235 311 171 310 203 b 304 278 308 250 307 264 b 294 358 301 306 299 332 b 297 372 294 364 296 368 b 308 378 300 376 304 378 b 318 371 313 376 317 375 b 319 363 319 368 319 365 b 324 319 321 347 322 333 b 336 224 328 288 332 256 b 342 183 338 210 339 197 b 357 110 347 158 351 135 b 376 53 361 90 367 71 b 418 21 386 36 399 25 b 486 10 440 15 464 13 b 540 6 504 7 522 7 b 600 29 564 4 585 10 b 601 31 601 29 601 31 b 613 61 614 38 615 49 b 608 92 611 72 610 82 b 603 126 607 104 606 115 b 561 253 592 171 578 213 b 540 313 554 272 546 292 b 500 479 528 368 514 424 b 488 524 496 494 492 508 b 492 550 486 532 486 542 b 503 571 496 557 500 564 b 569 703 525 615 547 660 b 626 824 589 743 604 785 b 629 829 626 825 628 828 b 639 892 638 850 642 871 b 635 910 639 899 638 904 b 576 957 624 936 603 950 b 489 965 547 963 518 964 b 482 965 486 965 485 965 b 419 919 454 961 431 949 b 401 875 414 904 408 890 b 356 729 382 828 365 779 b 313 608 346 688 329 647 b 304 596 310 604 307 600 b 293 593 301 593 297 592 b 285 603 288 593 283 599 b 288 621 285 610 286 615 b 294 650 290 631 294 640 b 297 708 294 668 296 686 b 294 776 296 728 294 751 z "},"l":{"ha":560,"x_min":0,"x_max":0,"o":"m 274 333 b 272 685 274 450 272 567 b 269 724 272 697 271 711 b 268 804 269 750 269 778 b 271 819 268 810 269 814 b 281 869 274 836 278 853 b 276 914 282 885 281 899 b 253 943 274 926 265 936 b 239 949 249 946 244 947 b 161 965 214 958 188 961 b 140 964 154 965 147 965 b 69 940 115 961 90 956 b 58 933 67 938 63 936 b 50 885 53 918 51 901 b 50 838 50 869 50 853 b 53 688 51 788 53 738 b 54 558 54 644 53 601 b 57 465 54 528 57 496 b 58 129 58 353 58 240 b 56 92 58 117 57 104 b 54 74 56 86 54 79 b 89 22 54 49 67 31 b 115 14 97 18 107 15 b 224 3 151 4 188 3 b 333 4 260 1 297 4 b 375 6 347 4 361 4 b 433 10 394 7 414 7 b 474 21 447 11 461 15 b 515 51 492 28 506 38 b 540 101 526 67 536 83 b 550 157 544 119 547 139 b 558 222 554 179 556 200 b 558 256 558 233 560 244 b 514 310 556 288 538 304 b 454 317 494 314 475 318 b 385 310 431 314 408 313 b 290 308 354 308 322 306 b 276 310 286 308 281 310 b 274 333 272 318 274 326 z "},"m":{"ha":875,"x_min":0,"x_max":0,"o":"m 622 594 b 617 511 619 567 615 539 b 617 449 618 490 618 469 b 611 346 615 414 615 379 b 606 239 608 310 607 275 b 606 236 606 238 606 236 b 599 117 601 196 601 157 b 594 74 597 103 597 89 b 594 40 593 64 594 51 b 614 21 596 31 603 24 b 644 14 624 19 635 15 b 756 6 681 4 718 4 b 769 8 760 6 765 7 b 808 40 788 11 801 22 b 817 68 811 49 814 58 b 825 146 822 93 824 119 b 829 326 826 206 828 267 b 826 478 829 376 828 428 b 821 678 825 544 826 611 b 821 703 821 686 821 694 b 808 818 817 740 814 779 b 799 868 807 835 804 853 b 771 914 794 886 786 903 b 703 940 750 928 729 940 b 697 942 701 940 699 942 b 606 953 667 947 636 950 b 576 953 596 954 586 953 b 540 942 564 953 551 949 b 504 896 521 932 508 918 b 493 826 501 874 497 850 b 475 714 488 789 481 751 b 456 610 468 679 461 644 b 444 553 451 592 449 574 b 438 569 442 561 439 565 b 419 643 432 594 426 619 b 376 804 406 697 392 751 b 354 879 369 829 363 854 b 342 908 351 889 346 899 b 314 933 335 919 326 929 b 301 942 310 936 306 939 b 294 944 300 943 297 944 b 240 951 276 947 260 954 b 231 953 238 951 233 953 b 178 951 213 953 196 953 b 117 921 151 951 132 940 b 110 910 114 917 113 914 b 81 846 96 890 88 868 b 63 753 74 815 67 783 b 51 651 60 718 54 685 b 47 542 49 614 47 578 b 46 261 46 447 46 354 b 50 124 46 215 44 169 b 56 85 51 111 53 97 b 67 51 58 74 61 63 b 97 19 74 38 83 28 b 143 1 111 11 126 4 b 182 -7 157 -1 169 -4 b 240 -7 201 -10 221 -12 b 294 39 268 -1 286 13 b 299 60 297 46 299 53 b 303 140 303 86 304 114 b 299 267 301 183 300 225 b 299 278 299 271 299 274 b 290 413 294 322 292 367 b 283 465 290 431 289 447 b 279 496 281 475 279 486 b 268 578 276 524 274 551 b 264 601 267 586 265 593 b 264 607 264 603 264 606 b 274 617 264 613 268 617 b 286 611 279 618 283 615 b 289 601 288 607 288 604 b 303 508 294 571 300 540 b 310 461 306 493 307 478 b 325 383 314 436 319 410 b 346 278 332 349 339 314 b 360 243 349 267 353 254 b 404 213 369 226 383 214 b 433 210 414 211 424 210 b 490 208 451 208 471 210 b 526 229 507 208 518 217 b 536 250 529 236 533 243 b 560 344 547 281 554 313 b 581 461 567 383 574 422 b 594 574 586 499 590 536 b 599 651 596 600 600 625 b 599 657 599 653 599 656 b 608 668 600 663 603 665 b 624 663 614 671 618 667 b 622 594 625 639 624 617 z "},"n":{"ha":742,"x_min":0,"x_max":0,"o":"m 682 614 b 682 639 682 622 682 631 b 681 710 682 663 682 686 b 675 806 679 742 675 774 b 664 881 674 831 671 856 b 650 924 661 896 656 910 b 617 950 644 939 632 947 b 600 953 611 951 606 953 b 553 958 583 951 568 956 b 525 963 543 961 535 961 b 472 932 501 964 483 953 b 463 911 468 925 465 918 b 447 826 450 885 449 856 b 446 731 446 794 446 763 b 453 654 446 706 446 679 b 454 649 454 653 454 650 b 471 544 460 614 465 579 b 471 525 471 538 472 532 b 453 519 469 517 458 514 b 446 528 450 521 447 525 b 442 546 444 533 443 539 b 433 611 439 568 436 589 b 428 649 431 624 431 636 b 417 707 425 668 421 688 b 363 856 406 760 389 808 b 310 919 350 881 332 901 b 257 949 294 932 276 940 b 224 958 247 954 235 956 b 211 960 219 960 215 960 b 172 957 199 958 185 958 b 135 953 160 957 147 956 b 67 892 103 944 78 925 b 60 861 64 882 61 872 b 61 768 57 831 58 799 b 61 710 63 749 63 729 b 56 619 60 679 57 650 b 51 474 53 571 53 522 b 53 426 51 458 53 442 b 51 381 53 411 51 396 b 50 250 51 336 51 293 b 49 188 50 229 50 208 b 46 117 46 164 46 140 b 53 81 46 104 49 92 b 83 38 57 63 65 47 b 88 33 85 36 86 35 b 117 21 96 28 106 24 b 188 11 140 17 164 14 b 231 10 201 11 217 8 b 300 53 263 11 286 25 b 307 72 303 60 306 65 b 318 181 317 108 319 144 b 313 247 318 203 315 225 b 297 365 307 286 303 325 b 293 401 296 376 296 389 b 275 468 288 424 281 446 b 265 497 272 478 268 488 b 263 510 264 501 264 506 b 271 522 263 514 267 521 b 286 518 276 525 283 524 b 293 501 289 513 292 507 b 307 460 297 488 301 474 b 317 424 310 447 314 436 b 343 346 324 397 332 371 b 358 308 349 333 354 321 b 390 214 372 278 383 247 b 413 124 399 185 406 154 b 431 74 417 107 424 89 b 476 26 442 53 456 36 b 504 14 486 22 494 18 b 586 -1 531 4 558 0 b 674 47 625 -4 656 11 b 686 85 679 60 683 72 b 697 188 694 118 696 153 b 699 250 699 208 699 229 b 694 378 700 293 699 336 b 689 457 693 404 692 431 b 689 464 689 460 689 461 b 682 532 686 486 683 508 b 682 614 682 558 682 586 b 682 614 682 614 682 614 z "},"o":{"ha":649,"x_min":0,"x_max":0,"o":"m 613 657 b 601 721 611 679 607 700 b 558 822 592 756 576 789 b 524 876 549 840 538 858 b 383 963 489 924 443 953 b 335 967 367 965 351 964 b 271 964 314 969 292 967 b 251 957 264 964 257 961 b 232 949 246 951 239 950 b 193 933 218 946 206 940 b 90 811 147 901 111 863 b 54 688 75 771 63 729 b 39 600 49 658 43 629 b 31 538 35 579 31 558 b 33 381 28 485 25 432 b 44 307 36 356 40 331 b 60 238 49 283 56 261 b 83 160 65 211 74 186 b 131 85 93 132 110 107 b 211 26 154 61 182 43 b 367 4 261 0 313 -4 b 439 25 392 7 415 15 b 518 90 472 39 500 60 b 568 197 538 125 554 161 b 596 304 581 232 589 268 b 611 425 603 344 610 385 b 611 438 611 429 611 433 b 618 564 615 478 619 518 b 613 657 621 592 615 624 z m 251 528 b 258 592 251 550 254 571 b 264 626 261 604 263 615 b 281 735 267 664 274 700 b 319 767 286 756 299 765 b 358 749 336 767 349 761 b 371 731 363 743 368 736 b 388 672 381 713 386 693 b 397 599 390 649 393 624 b 397 535 400 578 399 556 b 396 497 396 522 396 510 b 390 390 397 461 393 425 b 376 308 388 363 382 335 b 361 257 372 290 368 274 b 332 224 354 243 344 233 b 307 217 325 218 317 215 b 269 242 289 217 276 226 b 260 281 264 254 261 267 b 251 385 256 315 253 350 b 251 489 249 417 250 449 b 251 528 251 497 251 513 z "},"p":{"ha":613,"x_min":0,"x_max":0,"o":"m 142 947 b 103 940 129 946 115 943 b 75 904 85 936 74 924 b 75 881 76 896 76 889 b 71 840 75 867 72 853 b 60 728 65 803 63 765 b 56 585 57 681 57 633 b 54 392 56 521 54 456 b 54 378 54 388 54 382 b 53 286 50 347 51 317 b 54 256 54 275 54 265 b 44 160 51 224 49 192 b 42 76 42 132 42 104 b 86 19 42 50 56 28 b 163 8 111 13 136 6 b 181 8 168 8 175 8 b 199 6 186 7 193 7 b 257 6 218 -1 238 1 b 286 42 275 10 285 24 b 288 68 288 50 288 60 b 281 135 285 90 285 113 b 274 235 276 168 275 201 b 271 257 274 242 272 249 b 272 299 271 271 269 285 b 275 331 274 310 274 321 b 279 364 276 342 278 353 b 279 368 279 365 279 367 b 301 382 282 379 290 383 b 404 383 336 376 371 376 b 531 464 456 394 499 421 b 589 571 556 496 575 532 b 601 621 594 588 600 604 b 594 735 606 660 604 697 b 490 908 576 803 542 861 b 385 953 460 936 425 950 b 246 957 346 954 306 954 b 142 947 224 958 183 950 z m 342 776 b 393 742 361 768 378 757 b 408 706 401 732 407 719 b 364 576 415 656 401 613 b 294 553 343 558 319 551 b 276 568 285 553 279 558 b 275 589 276 575 275 582 b 279 644 276 607 278 626 b 281 761 279 683 281 722 b 282 779 282 767 282 771 b 342 776 304 785 322 783 z "},"q":{"ha":649,"x_min":0,"x_max":0,"o":"m 479 38 b 515 75 494 47 506 60 b 583 235 546 125 568 179 b 607 368 594 279 603 324 b 617 503 613 413 614 457 b 619 554 618 519 619 536 b 613 649 617 586 618 618 b 606 692 611 664 610 678 b 563 806 597 732 582 769 b 510 883 547 833 531 860 b 414 944 483 913 451 933 b 288 957 372 957 329 958 b 247 943 274 956 258 954 b 236 940 244 940 240 940 b 186 918 218 936 201 928 b 131 865 165 903 147 885 b 96 811 115 849 104 831 b 57 686 78 771 67 729 b 42 606 50 660 46 632 b 28 465 32 558 28 511 b 31 403 28 444 29 424 b 42 313 32 372 36 342 b 64 211 49 278 57 244 b 86 143 69 188 78 165 b 126 79 94 119 110 99 b 182 35 143 61 161 47 b 274 -6 210 15 240 1 b 288 -10 278 -7 283 -8 b 294 -25 290 -15 293 -19 b 336 -110 308 -53 322 -81 b 367 -156 344 -126 354 -142 b 385 -174 372 -162 378 -168 b 408 -182 392 -179 399 -182 b 451 -182 422 -181 438 -182 b 467 -179 457 -182 461 -181 b 567 -129 503 -168 538 -153 b 589 -106 575 -122 582 -114 b 586 -43 600 -89 600 -61 b 556 -18 576 -33 567 -25 b 511 6 540 -10 526 -3 b 469 28 497 13 483 21 b 479 38 474 32 476 35 z m 397 478 b 390 386 396 447 393 417 b 372 278 389 350 381 314 b 340 221 368 256 358 236 b 333 214 339 218 336 217 b 269 233 308 197 281 206 b 260 271 265 246 263 258 b 256 304 257 282 257 293 b 250 406 254 338 250 371 b 250 510 250 440 250 475 b 258 575 251 532 254 553 b 267 639 261 596 264 617 b 281 722 269 667 275 694 b 307 754 283 738 290 749 b 353 744 324 758 339 757 b 368 726 358 739 364 733 b 389 657 379 704 388 682 b 393 619 390 644 392 632 b 399 531 400 590 397 561 b 399 526 399 529 399 528 b 397 526 397 526 397 526 b 397 478 397 510 397 493 z "},"r":{"ha":657,"x_min":0,"x_max":0,"o":"m 443 463 b 454 467 446 465 451 467 b 514 485 476 465 496 474 b 578 540 539 499 560 518 b 588 558 582 546 585 553 b 601 615 594 578 599 596 b 597 710 606 647 603 679 b 544 833 588 754 571 796 b 483 904 526 860 508 885 b 404 940 460 922 433 936 b 347 943 385 942 367 943 b 225 944 307 944 265 944 b 199 943 217 944 207 943 b 140 936 179 940 158 939 b 97 928 125 933 111 932 b 75 892 81 922 74 908 b 76 875 76 886 76 881 b 63 756 69 836 65 796 b 57 642 58 718 58 679 b 54 401 56 561 57 481 b 53 269 51 357 53 314 b 50 210 53 250 51 231 b 43 132 49 183 46 157 b 42 104 43 122 42 114 b 40 65 40 92 40 78 b 78 11 42 40 54 22 b 108 6 88 8 97 7 b 153 3 124 6 138 6 b 251 14 186 -3 219 3 b 264 21 256 15 261 17 b 283 56 274 31 282 42 b 285 79 285 64 285 71 b 276 160 282 106 279 132 b 271 253 274 190 272 222 b 272 292 271 265 271 279 b 276 338 274 307 275 322 b 281 360 276 344 278 353 b 299 371 282 368 289 372 b 332 353 311 369 324 364 b 360 296 344 336 356 317 b 375 219 365 271 369 246 b 403 94 385 178 393 136 b 414 57 406 82 408 69 b 471 8 424 32 443 15 b 533 6 492 3 513 3 b 582 14 550 8 567 11 b 626 32 599 17 614 22 b 640 74 639 43 644 57 b 628 113 636 86 633 100 b 553 304 603 176 578 240 b 531 351 546 321 539 336 b 456 439 513 388 489 417 b 438 451 450 442 444 446 b 443 463 440 456 440 460 z m 296 771 b 393 731 336 775 367 758 b 410 689 404 719 408 704 b 357 561 414 638 397 594 b 347 554 354 558 351 556 b 299 542 332 546 317 542 b 276 563 285 540 276 549 b 278 618 275 581 276 600 b 279 650 278 629 279 639 b 281 749 279 682 279 715 b 281 769 281 756 281 761 b 296 771 288 769 292 769 z "},"s":{"ha":583,"x_min":0,"x_max":0,"o":"m 389 22 b 475 58 421 29 449 40 b 536 150 506 82 529 111 b 542 192 538 164 540 178 b 549 244 544 210 546 228 b 550 299 551 263 551 281 b 539 368 547 322 543 346 b 439 522 524 432 490 483 b 358 571 414 542 386 556 b 292 607 336 582 314 594 b 246 665 269 621 257 643 b 244 676 244 668 244 672 b 253 739 243 697 247 718 b 275 769 257 751 264 761 b 290 775 279 772 285 775 b 319 760 303 776 314 771 b 332 726 326 749 329 738 b 344 674 335 708 339 692 b 393 629 353 651 369 636 b 493 629 426 618 460 619 b 535 672 514 636 528 650 b 539 715 539 686 540 700 b 533 796 538 742 536 768 b 531 807 533 800 532 804 b 525 828 526 814 526 821 b 490 906 521 857 510 883 b 376 976 461 943 421 965 b 268 979 340 986 304 985 b 142 936 224 974 182 956 b 58 854 104 918 78 890 b 32 754 42 822 35 789 b 33 696 32 735 32 715 b 54 611 35 667 42 639 b 113 529 68 581 86 551 b 182 479 133 510 157 493 b 276 417 215 461 247 440 b 318 374 292 404 306 389 b 347 314 332 356 343 336 b 349 263 351 297 351 281 b 331 211 347 243 340 226 b 289 189 321 196 307 189 b 268 194 282 188 274 190 b 243 244 251 207 242 222 b 243 296 243 261 243 279 b 240 328 243 307 242 317 b 217 375 238 346 226 360 b 176 397 207 390 193 396 b 113 388 154 397 132 394 b 57 358 92 381 74 372 b 36 322 47 349 39 336 b 33 288 35 311 32 299 b 38 221 35 265 35 243 b 46 188 39 210 39 197 b 58 158 51 178 54 168 b 107 82 68 129 85 103 b 242 22 144 46 190 26 b 301 17 267 19 290 18 b 389 22 339 17 364 17 z "},"t":{"ha":581,"x_min":0,"x_max":0,"o":"m 186 639 b 183 386 185 554 189 469 b 181 283 182 353 182 318 b 179 128 178 232 179 179 b 188 68 179 107 182 88 b 197 40 190 58 193 49 b 240 3 207 22 221 8 b 285 -3 254 -1 269 -4 b 360 1 310 0 335 4 b 368 3 363 1 365 1 b 411 47 393 6 407 21 b 414 65 411 53 413 60 b 417 139 421 90 421 114 b 407 268 413 182 407 225 b 399 460 407 332 406 396 b 390 582 396 500 393 542 b 379 694 389 619 382 657 b 376 725 378 704 378 715 b 379 729 376 726 378 726 b 401 729 386 729 393 729 b 479 729 428 729 453 728 b 542 750 503 732 522 739 b 581 804 563 763 575 781 b 581 886 586 831 585 858 b 554 939 578 907 569 925 b 549 943 551 940 550 942 b 531 954 544 950 539 953 b 508 957 524 956 515 957 b 476 957 497 957 488 957 b 244 961 399 961 322 964 b 169 963 219 961 194 963 b 104 960 147 963 125 961 b 63 950 90 958 76 956 b -3 864 25 935 6 904 b -1 803 -7 844 -6 822 b 54 743 6 772 24 751 b 75 736 63 742 69 739 b 174 735 108 739 140 738 b 186 721 178 729 182 725 b 186 639 186 692 186 665 z "},"u":{"ha":647,"x_min":0,"x_max":0,"o":"m 49 894 b 44 856 47 882 44 869 b 49 675 42 796 43 735 b 50 643 50 664 50 654 b 49 526 49 604 50 565 b 49 400 47 483 49 442 b 57 242 49 347 51 294 b 74 158 61 213 65 185 b 96 104 78 139 85 121 b 171 33 114 75 140 51 b 274 -1 203 14 238 4 b 315 -3 288 -3 301 -3 b 394 15 343 -3 369 6 b 489 79 431 31 463 50 b 524 117 501 92 513 104 b 576 225 551 149 569 185 b 589 311 582 254 586 282 b 596 393 592 339 596 365 b 599 528 594 438 599 482 b 600 536 599 531 600 533 b 606 614 601 561 604 588 b 608 789 607 672 607 731 b 604 889 608 822 607 856 b 594 926 603 901 600 914 b 563 954 588 940 578 950 b 492 964 539 963 515 964 b 419 953 467 964 443 960 b 394 944 411 950 401 947 b 363 907 378 936 368 924 b 358 881 360 899 358 890 b 360 817 358 860 360 839 b 363 806 360 813 361 808 b 368 775 367 794 368 785 b 368 718 368 756 368 738 b 368 692 369 710 368 701 b 363 593 365 660 361 626 b 358 475 364 554 361 515 b 357 414 356 456 356 435 b 353 325 357 385 357 354 b 332 265 349 304 343 283 b 321 256 329 261 328 257 b 315 265 319 258 317 261 b 301 372 307 300 303 336 b 304 386 301 376 301 382 b 308 407 308 392 308 400 b 310 490 308 435 310 463 b 310 515 310 499 310 507 b 310 638 313 556 311 596 b 306 710 308 661 307 685 b 307 746 306 721 306 733 b 308 847 311 779 311 814 b 296 901 307 865 303 885 b 243 954 286 926 268 944 b 219 963 235 958 226 961 b 178 968 206 965 192 967 b 74 946 140 974 104 969 b 69 943 72 946 71 944 b 49 894 63 928 51 913 z "},"v":{"ha":679,"x_min":0,"x_max":0,"o":"m 644 896 b 639 915 643 903 642 910 b 585 956 629 940 611 954 b 515 958 561 956 539 957 b 486 961 506 960 496 961 b 458 963 476 963 468 964 b 396 906 422 958 401 940 b 392 861 394 890 392 876 b 389 746 390 824 389 785 b 385 647 388 713 388 681 b 379 511 382 601 381 556 b 378 431 379 483 379 457 b 371 339 376 400 374 369 b 374 236 369 304 369 269 b 372 219 374 231 374 225 b 360 210 371 213 365 210 b 347 219 354 210 349 214 b 346 229 346 222 346 226 b 340 281 343 246 343 263 b 329 372 338 311 332 342 b 321 489 326 411 324 450 b 317 567 319 515 318 540 b 314 674 317 603 315 639 b 304 833 310 728 310 781 b 299 879 303 849 300 864 b 290 913 296 890 293 901 b 229 956 281 942 258 956 b 171 954 210 956 190 956 b 121 957 154 954 138 954 b 72 953 104 960 89 958 b 17 885 40 943 19 919 b 18 836 17 868 17 853 b 28 776 21 817 24 796 b 46 660 33 738 40 699 b 65 546 53 622 58 583 b 93 406 74 499 83 453 b 139 214 104 340 121 278 b 161 122 147 183 156 153 b 176 65 165 103 171 85 b 199 29 181 51 189 40 b 238 11 208 18 222 13 b 304 7 260 10 282 8 b 321 6 310 7 315 6 b 378 0 340 3 358 1 b 431 3 394 0 413 1 b 489 22 451 6 471 11 b 539 74 510 35 525 53 b 556 107 547 83 551 94 b 560 132 557 115 558 124 b 582 271 568 178 575 225 b 592 344 585 296 588 319 b 607 443 596 376 601 410 b 622 539 611 475 617 507 b 636 622 626 567 632 594 b 646 711 640 651 642 682 b 653 818 651 747 649 783 b 644 896 654 839 649 881 z "},"w":{"ha":1078,"x_min":0,"x_max":0,"o":"m 349 325 b 342 386 344 346 342 365 b 338 444 340 406 339 425 b 332 499 336 463 333 481 b 326 544 331 514 329 529 b 321 629 322 572 321 600 b 319 736 321 664 321 700 b 317 839 319 771 319 804 b 303 915 314 865 307 890 b 276 951 300 932 290 943 b 244 963 267 957 256 961 b 169 971 219 969 194 972 b 111 967 150 969 131 968 b 65 958 96 967 81 963 b 42 940 54 956 46 950 b 33 922 39 935 36 929 b 31 872 28 907 28 889 b 32 854 31 867 33 860 b 39 751 31 819 36 785 b 49 625 42 710 46 668 b 56 539 51 597 53 568 b 60 488 57 522 58 504 b 67 421 63 465 64 443 b 76 328 69 390 72 358 b 92 217 81 290 86 253 b 106 131 96 188 100 160 b 115 97 107 119 110 108 b 132 56 121 83 126 69 b 163 21 136 40 147 28 b 233 10 185 13 208 7 b 307 10 257 13 282 14 b 397 7 336 6 367 7 b 444 21 414 8 429 13 b 464 44 454 26 460 33 b 475 107 469 65 472 86 b 485 190 479 135 482 163 b 500 311 490 231 496 271 b 510 417 504 346 507 382 b 514 472 511 436 513 454 b 522 572 517 506 519 539 b 525 596 524 581 524 588 b 526 619 526 604 525 613 b 542 622 532 624 538 622 b 553 614 547 622 551 619 b 554 608 553 613 554 610 b 563 526 557 581 561 554 b 565 461 564 504 564 483 b 572 390 567 438 569 414 b 582 307 575 363 578 335 b 596 211 586 275 592 243 b 618 93 601 171 610 132 b 631 56 622 81 626 68 b 674 15 639 36 653 22 b 700 7 682 13 690 10 b 742 1 714 3 728 4 b 808 0 764 -1 786 -1 b 854 4 824 1 839 3 b 913 21 875 7 894 11 b 940 53 925 29 935 39 b 947 74 942 60 944 67 b 968 179 956 108 963 144 b 976 238 971 199 974 218 b 989 349 981 275 985 311 b 1003 475 993 390 997 433 b 1007 522 1004 490 1006 506 b 1014 586 1010 543 1013 565 b 1019 639 1017 604 1017 621 b 1035 749 1025 675 1029 713 b 1054 874 1040 790 1047 832 b 1056 915 1057 888 1057 901 b 1029 963 1054 935 1046 950 b 997 967 1019 964 1008 967 b 907 961 967 965 938 963 b 879 958 897 960 889 960 b 832 954 864 957 847 956 b 815 950 826 954 821 953 b 786 908 796 943 786 929 b 786 894 786 904 786 899 b 785 869 786 886 786 878 b 783 854 785 864 783 860 b 779 746 782 818 781 782 b 774 485 778 658 779 571 b 774 472 774 481 774 476 b 767 371 771 439 768 404 b 761 304 764 349 763 326 b 757 272 760 293 758 283 b 753 261 756 269 754 265 b 747 258 753 258 750 257 b 746 263 746 260 746 261 b 733 347 738 290 736 318 b 726 406 731 367 729 386 b 717 525 724 446 719 485 b 713 615 714 556 713 585 b 707 760 713 664 708 713 b 706 794 707 771 707 783 b 699 850 704 813 704 832 b 668 883 694 865 685 878 b 644 889 661 885 653 888 b 561 894 617 896 589 897 b 518 892 547 893 532 892 b 464 888 500 890 482 890 b 424 860 447 885 433 875 b 410 824 417 849 413 836 b 396 740 403 796 399 768 b 386 642 392 707 389 675 b 382 592 385 625 383 608 b 375 508 379 564 376 536 b 369 406 372 474 372 439 b 368 393 369 401 369 397 b 356 326 364 371 361 349 b 351 319 356 325 354 324 b 349 325 350 322 350 324 z "},"x":{"ha":738,"x_min":0,"x_max":0,"o":"m 371 381 b 375 371 372 378 374 374 b 396 261 385 335 392 299 b 414 139 401 221 407 179 b 431 51 419 110 425 81 b 476 0 436 25 453 10 b 519 -8 490 -6 504 -8 b 590 -3 543 -10 567 -6 b 654 8 613 0 633 6 b 704 43 678 11 693 24 b 715 133 718 72 721 103 b 690 193 711 156 700 174 b 672 229 683 204 676 217 b 622 343 657 268 640 306 b 582 424 608 369 596 396 b 575 454 576 433 574 443 b 576 474 575 461 576 467 b 596 550 579 500 586 525 b 640 681 610 593 625 638 b 681 782 653 714 667 747 b 699 846 689 803 694 824 b 697 892 701 861 703 876 b 628 956 686 926 665 950 b 576 961 611 958 593 961 b 565 963 572 961 569 961 b 490 961 540 965 515 967 b 476 960 486 960 481 960 b 435 956 463 958 447 957 b 410 908 419 943 414 926 b 403 836 404 885 404 860 b 394 707 400 793 397 750 b 379 618 392 676 386 647 b 365 585 376 607 369 596 b 356 576 363 581 360 576 b 343 579 351 576 349 579 b 335 622 340 594 336 608 b 326 700 332 649 328 674 b 311 842 325 747 317 794 b 304 907 308 864 304 885 b 301 928 304 914 303 921 b 269 960 299 946 288 957 b 204 964 247 963 226 965 b 181 964 196 964 189 964 b 100 960 154 967 126 964 b 60 951 86 957 74 954 b 35 931 49 950 40 942 b 24 888 28 917 25 903 b 31 838 22 871 24 854 b 128 611 61 761 92 685 b 156 549 138 590 147 569 b 171 515 161 538 165 526 b 174 458 181 497 183 478 b 160 419 168 446 164 432 b 143 388 156 408 150 397 b 135 369 139 382 138 376 b 81 246 117 329 99 288 b 42 158 68 217 54 188 b 21 93 33 138 26 115 b 32 40 17 74 21 56 b 82 4 43 21 61 10 b 147 -4 103 -1 125 -3 b 190 -8 161 -6 176 -7 b 218 -8 200 -8 208 -8 b 283 22 244 -8 265 3 b 306 63 294 33 301 47 b 326 142 315 88 322 114 b 342 232 332 172 338 201 b 356 347 347 271 351 308 b 360 371 357 356 358 363 b 369 382 361 375 364 381 b 371 381 369 381 371 381 z "},"y":{"ha":661,"x_min":0,"x_max":0,"o":"m 289 729 b 253 878 278 779 269 829 b 228 938 250 900 239 918 b 201 957 221 947 213 954 b 176 960 193 958 185 960 b 111 958 154 957 133 958 b 38 942 86 958 61 953 b -3 864 11 928 -8 900 b 13 813 0 846 6 829 b 63 717 29 781 44 749 b 147 543 93 660 122 603 b 154 525 150 538 153 532 b 160 508 154 519 157 514 b 168 492 164 503 165 497 b 193 436 176 472 183 453 b 208 386 201 419 207 403 b 217 272 214 349 215 311 b 213 125 218 224 217 175 b 210 83 213 111 211 97 b 210 63 210 76 210 69 b 263 7 214 32 226 13 b 296 4 274 6 285 4 b 372 4 321 3 347 4 b 397 8 381 4 389 6 b 433 35 413 11 425 19 b 446 69 440 46 443 57 b 450 154 449 97 450 126 b 450 339 450 215 450 278 b 453 397 450 358 453 378 b 461 440 453 413 453 426 b 465 453 464 444 464 449 b 528 606 483 504 504 556 b 592 729 547 647 571 688 b 644 828 610 763 628 794 b 667 893 654 849 663 869 b 632 950 671 919 657 942 b 611 954 625 953 618 954 b 536 960 586 957 561 958 b 458 960 510 960 485 958 b 419 933 438 961 428 949 b 417 925 418 931 418 928 b 374 785 403 878 386 832 b 328 629 358 732 343 681 b 321 613 326 625 324 621 b 289 729 307 653 297 690 z "},"z":{"ha":574,"x_min":0,"x_max":0,"o":"m 294 265 b 447 556 342 364 396 458 b 510 683 469 597 490 640 b 529 735 517 700 522 718 b 538 789 535 753 538 769 b 539 810 536 796 538 803 b 532 906 542 842 538 874 b 482 950 525 932 508 946 b 467 951 476 951 472 951 b 429 951 454 951 442 951 b 324 951 394 951 360 951 b 246 954 299 953 272 954 b 113 956 201 956 157 956 b 106 954 110 956 107 954 b 89 943 97 951 96 943 b 69 926 78 943 72 935 b 51 886 63 914 57 900 b 31 781 36 853 29 817 b 69 728 32 753 49 735 b 117 718 85 724 100 719 b 274 725 169 717 221 722 b 278 725 275 725 276 725 b 315 726 290 726 303 726 b 324 725 318 728 321 726 b 324 717 324 722 324 719 b 39 193 321 708 46 207 b 19 104 22 165 15 136 b 22 79 21 96 21 88 b 31 39 25 65 25 51 b 51 24 35 29 40 22 b 74 19 58 24 67 21 b 101 15 83 18 92 17 b 156 14 119 15 138 14 b 336 15 215 15 276 15 b 456 17 376 15 417 15 b 486 17 467 17 476 17 b 535 57 511 19 526 32 b 536 67 535 60 536 63 b 542 96 538 76 539 86 b 547 143 547 111 547 126 b 544 193 546 160 546 176 b 544 213 544 200 544 206 b 514 258 542 232 532 249 b 463 269 499 268 481 271 b 371 257 431 268 401 263 b 282 240 342 253 314 247 b 294 265 288 250 290 258 z "},"{":{"ha":501,"x_min":0,"x_max":0,"o":"m 265 467 b 324 581 296 499 318 535 b 328 636 325 599 328 618 b 319 707 326 660 324 683 b 307 794 314 736 308 765 b 307 807 307 799 307 803 b 304 892 303 835 304 863 b 322 914 306 903 311 911 b 344 919 329 917 338 918 b 393 924 361 921 376 922 b 431 965 418 926 431 940 b 431 969 431 967 431 968 b 421 1036 428 992 425 1014 b 376 1071 417 1058 394 1071 b 300 1071 351 1069 326 1071 b 239 1053 278 1071 257 1065 b 214 1033 231 1047 222 1040 b 161 957 189 1014 171 988 b 151 906 156 940 154 922 b 150 835 147 882 146 858 b 163 744 153 804 158 775 b 169 628 168 706 171 667 b 164 590 169 615 167 603 b 135 554 160 574 150 561 b 121 549 129 551 125 550 b 69 540 104 543 88 539 b 42 538 60 540 50 540 b 17 508 26 533 18 524 b 17 489 17 501 17 494 b 17 415 19 464 19 440 b 17 400 17 410 17 406 b 44 367 17 385 25 371 b 74 364 54 365 64 364 b 129 353 93 365 111 360 b 164 314 147 346 160 333 b 169 275 167 301 169 288 b 164 168 171 239 169 203 b 157 118 161 151 160 135 b 149 65 154 100 150 83 b 154 -24 146 36 149 6 b 164 -61 157 -36 160 -49 b 236 -146 178 -97 204 -125 b 300 -165 256 -160 276 -167 b 368 -165 322 -165 346 -168 b 388 -164 375 -165 381 -164 b 404 -157 394 -164 400 -160 b 422 -126 415 -149 419 -139 b 429 -75 425 -110 428 -92 b 431 -53 431 -68 431 -60 b 399 -19 429 -35 418 -22 b 357 -15 385 -18 371 -17 b 332 -12 349 -15 340 -14 b 304 21 310 -7 306 -1 b 310 140 301 61 306 100 b 322 219 313 167 318 193 b 322 328 329 256 329 292 b 313 368 321 342 318 356 b 268 436 303 394 286 415 b 251 453 263 442 258 446 b 265 467 257 458 261 463 z "},"+":{"ha":944,"x_min":0,"x_max":0,"o":"m 364 414 b 407 372 389 414 407 397 b 408 106 410 283 407 194 b 475 35 408 54 419 35 b 524 57 493 35 513 43 b 544 379 543 81 544 285 b 586 421 544 404 561 421 b 854 425 675 422 765 424 b 925 492 907 426 925 436 b 903 540 925 510 917 529 b 585 561 879 560 678 561 b 542 603 560 561 543 578 b 542 688 542 631 542 660 b 546 872 542 749 546 811 b 472 940 546 926 522 940 b 417 913 446 940 428 939 b 399 601 392 854 396 697 b 357 560 399 576 382 560 b 219 561 311 560 265 561 l 88 561 b 19 488 33 561 19 538 b 47 432 19 461 21 443 b 364 414 106 407 265 411 z "},"$":{"ha":551,"x_min":0,"x_max":0,"o":"m 194 778 b 136 756 174 772 156 764 b 76 701 108 746 90 726 b 54 651 68 685 60 669 b 53 572 43 625 43 599 b 71 529 58 557 65 543 b 88 503 74 519 81 510 b 135 464 103 490 118 476 b 267 371 179 433 225 406 b 313 336 282 358 297 347 b 303 251 336 317 336 271 b 276 243 294 247 286 244 b 222 272 258 240 232 246 b 214 299 219 281 217 290 b 204 333 211 310 208 322 b 154 374 194 356 178 368 b 85 368 131 378 108 374 b 47 331 65 364 53 351 b 39 303 44 322 42 313 b 39 240 35 282 32 261 b 43 219 42 233 42 226 b 82 146 46 189 60 165 b 122 124 94 136 107 129 b 169 111 138 118 153 114 b 207 104 182 108 194 108 b 206 89 206 99 207 94 b 200 56 204 78 201 67 b 197 4 197 39 196 21 b 243 -40 200 -22 217 -39 b 299 -40 261 -40 281 -40 b 336 -29 311 -39 325 -36 b 363 24 358 -19 368 0 b 346 86 360 46 353 65 b 342 106 343 92 339 97 b 367 111 350 107 358 110 b 464 165 404 121 438 136 b 504 231 481 183 494 206 b 508 286 511 249 511 268 b 501 324 507 299 504 311 b 439 431 494 367 471 401 b 425 440 435 433 431 438 b 310 517 385 463 347 490 b 274 546 297 526 286 536 b 249 579 263 556 254 567 b 244 604 244 588 243 596 b 257 621 244 613 249 618 b 304 626 272 626 289 626 b 335 615 315 625 325 622 b 367 578 349 606 360 594 b 382 546 371 567 376 557 b 424 515 389 526 404 517 b 510 575 458 513 497 529 b 513 654 517 601 518 628 b 493 707 508 672 504 690 b 415 768 475 736 449 757 b 351 786 394 775 372 781 b 333 792 344 788 339 789 b 350 844 339 810 344 828 b 354 888 356 858 356 874 b 317 932 350 910 338 925 b 292 936 308 935 300 936 b 240 931 275 935 257 933 b 204 919 228 929 215 925 b 181 885 189 914 181 901 b 181 868 181 879 181 874 b 190 817 181 850 186 833 b 203 782 194 806 199 794 b 194 778 199 781 197 779 z "},"~":{"ha":525,"x_min":0,"x_max":0,"o":"m 417 297 b 442 321 425 304 433 313 b 499 414 469 347 488 378 b 501 440 501 422 501 432 b 483 474 501 456 496 467 b 454 490 474 479 464 486 b 400 472 429 501 411 494 b 388 450 396 464 392 457 b 349 408 378 433 367 418 b 314 406 338 401 326 400 b 288 419 304 410 296 414 b 254 444 276 428 265 438 b 224 464 244 451 235 458 b 194 474 214 469 204 472 b 118 454 167 476 142 471 b 67 397 96 439 79 419 b 44 358 60 383 53 371 b 22 311 35 344 28 328 b 47 263 17 289 24 271 b 56 260 50 261 53 260 b 106 247 71 253 89 250 b 136 261 119 244 129 250 b 144 275 139 265 143 271 b 160 306 150 285 156 296 b 169 319 163 311 165 315 b 222 321 183 336 206 339 b 229 313 225 318 226 315 b 321 267 254 282 289 268 b 417 297 361 267 390 275 z "},"^":{"ha":406,"x_min":0,"x_max":0,"o":"m 32 176 b 100 150 51 161 75 154 b 124 151 107 150 115 151 b 147 167 133 153 142 158 b 158 185 151 172 154 179 b 183 269 171 211 178 240 b 188 321 186 286 188 304 b 190 340 188 328 188 333 b 210 349 194 347 201 350 b 224 335 218 347 222 343 b 225 325 225 332 225 328 b 233 238 225 296 229 267 b 244 188 236 221 240 204 b 256 169 246 181 249 174 b 317 147 274 157 294 149 b 361 157 332 147 347 150 b 379 192 375 164 382 176 b 374 214 378 199 375 207 b 329 382 363 271 344 326 b 307 442 324 403 317 422 b 235 493 292 469 268 488 b 135 493 201 497 168 496 b 108 475 122 492 114 486 b 94 438 103 463 99 450 b 60 325 83 400 72 363 b 31 235 51 294 40 265 b 29 181 25 218 22 200 b 32 176 31 179 31 178 z "},"_":{"ha":664,"x_min":0,"x_max":0,"o":"m 467 -15 b 560 -11 499 -14 529 -14 b 621 11 582 -8 601 -1 b 644 57 638 22 644 38 b 592 124 643 86 621 115 b 540 132 575 129 557 132 b 472 132 517 132 494 132 b 385 131 443 131 414 129 b 272 132 347 133 310 132 b 238 131 261 132 249 132 b 149 124 207 129 178 126 b 68 110 122 122 94 118 b 36 96 57 107 46 101 b 18 63 24 88 18 76 b 39 8 18 42 26 24 b 82 -15 50 -6 65 -12 b 138 -18 100 -18 118 -18 b 265 -19 179 -19 222 -19 b 467 -15 332 -17 400 -19 z "},"`":{"ha":244,"x_min":0,"x_max":0,"o":"m 213 701 b 200 735 208 713 204 724 b 157 861 183 776 169 818 b 135 899 153 876 146 889 b 72 901 117 914 89 915 b 29 851 54 888 40 871 b 26 804 21 836 21 819 b 42 776 31 794 36 785 b 101 706 60 753 79 728 b 157 649 119 688 139 668 b 186 635 165 640 174 636 b 221 678 208 640 215 657 b 213 701 218 686 217 693 z "},"\\":{"ha":692,"x_min":0,"x_max":0,"o":"m 604 -19 b 622 18 617 -8 624 4 b 610 72 621 39 617 56 b 588 124 603 89 594 107 b 539 238 571 163 556 200 b 496 332 525 269 511 300 b 411 513 468 392 440 453 b 318 696 381 574 350 635 b 294 740 311 711 303 726 b 278 779 289 753 282 765 b 265 806 276 789 271 797 b 246 836 260 815 253 826 b 189 929 226 867 207 897 b 182 942 188 933 185 938 b 138 972 172 960 157 969 b 83 957 118 974 99 969 b 69 931 75 951 71 942 b 76 879 68 913 71 896 b 85 861 79 872 82 867 b 101 821 90 847 94 833 b 142 738 114 793 126 764 b 228 569 171 682 200 626 b 317 383 257 507 288 446 b 394 219 342 329 367 274 b 453 94 415 179 433 136 b 486 24 464 71 475 47 b 510 -12 493 11 501 -1 b 543 -37 518 -25 529 -33 b 567 -37 551 -39 558 -40 b 604 -19 581 -35 593 -29 z "},")":{"ha":517,"x_min":0,"x_max":0,"o":"m 115 -68 b 89 -107 101 -78 92 -90 b 113 -146 90 -124 100 -136 b 157 -183 128 -158 142 -171 b 181 -190 164 -189 171 -193 b 193 -192 185 -189 189 -190 b 240 -182 210 -196 226 -192 b 276 -158 253 -174 265 -167 b 379 -43 318 -128 351 -87 b 400 -4 386 -31 393 -18 b 408 10 403 0 406 6 b 429 51 419 22 424 36 b 458 175 442 92 450 133 b 468 229 463 193 465 211 b 475 307 472 256 474 281 b 469 424 476 346 472 385 b 461 513 468 454 465 483 b 449 597 458 540 454 569 b 429 696 443 631 436 664 b 392 825 421 740 407 782 b 331 954 375 869 356 913 b 299 1008 319 972 310 990 b 254 1069 286 1031 271 1050 b 194 1106 238 1088 219 1101 b 161 1103 182 1108 172 1107 b 146 1096 156 1101 151 1099 b 110 1079 135 1089 124 1082 b 99 1071 106 1078 101 1074 b 74 1036 88 1061 81 1049 b 81 992 67 1019 69 1004 b 96 976 85 986 90 981 b 150 910 118 957 136 935 b 200 825 167 882 183 853 b 247 713 219 789 233 751 b 283 575 263 668 276 622 b 289 514 286 554 289 535 b 296 456 290 494 292 475 b 301 294 304 401 307 347 b 253 108 296 229 281 167 b 242 83 249 100 246 92 b 183 -17 226 47 204 15 b 172 -28 181 -21 176 -25 b 131 -57 158 -39 144 -47 b 115 -68 125 -61 119 -64 z "},"}":{"ha":501,"x_min":0,"x_max":0,"o":"m 236 467 b 250 453 240 463 244 458 b 233 436 243 446 239 442 b 189 368 215 415 199 394 b 179 328 183 356 181 342 b 179 219 172 292 172 256 b 192 140 183 193 189 167 b 197 21 196 100 200 61 b 169 -12 196 -1 192 -7 b 144 -15 161 -14 153 -15 b 103 -19 131 -17 117 -18 b 71 -53 83 -22 72 -35 b 72 -75 71 -60 71 -68 b 79 -126 74 -92 76 -110 b 97 -157 82 -139 86 -149 b 114 -164 101 -160 107 -164 b 133 -165 121 -164 126 -165 b 201 -165 156 -168 179 -165 b 265 -146 225 -167 246 -160 b 338 -61 297 -125 324 -97 b 347 -24 342 -49 344 -36 b 353 65 353 6 356 36 b 344 118 351 83 347 100 b 338 168 342 135 340 151 b 332 275 332 203 331 239 b 338 314 332 288 335 301 b 372 353 342 333 354 346 b 428 364 390 360 408 365 b 457 367 438 364 447 365 b 485 400 476 371 485 385 b 485 415 485 406 485 410 b 485 489 482 440 482 464 b 485 508 485 494 485 501 b 460 538 483 524 475 533 b 432 540 451 540 442 540 b 381 549 414 539 397 543 b 367 554 376 550 372 551 b 338 590 351 561 342 574 b 332 628 335 603 332 615 b 339 744 331 667 333 706 b 351 835 343 775 349 804 b 350 906 356 858 354 882 b 340 957 347 922 346 940 b 288 1033 331 988 313 1014 b 263 1053 279 1040 271 1047 b 201 1071 244 1065 224 1071 b 125 1071 175 1071 150 1069 b 81 1036 107 1071 85 1058 b 71 969 76 1014 74 992 b 71 965 71 968 71 967 b 108 924 71 940 83 926 b 157 919 125 922 140 921 b 179 914 164 918 172 917 b 197 892 190 911 196 903 b 194 807 197 863 199 835 b 194 794 194 803 194 799 b 182 707 193 765 188 736 b 174 636 178 683 175 660 b 178 581 174 618 176 599 b 236 467 183 535 206 499 z "},"]":{"ha":449,"x_min":0,"x_max":0,"o":"m 199 922 b 208 919 201 922 204 921 b 213 894 210 911 213 903 b 217 857 215 882 215 869 b 222 781 219 832 221 806 b 229 708 225 757 228 732 b 229 700 229 706 229 703 b 236 542 232 647 235 594 b 239 140 240 408 238 274 b 235 60 240 114 240 86 b 224 15 232 44 229 31 b 221 8 222 13 222 10 b 197 -7 215 -1 208 -7 b 146 -8 181 -7 164 -8 b 136 -8 143 -8 139 -8 b 113 -21 126 -10 118 -12 b 103 -33 110 -25 106 -29 b 99 -46 100 -37 97 -42 b 99 -83 101 -58 96 -71 b 99 -108 100 -92 99 -100 b 131 -147 97 -132 113 -143 b 164 -150 142 -149 151 -150 b 226 -150 185 -150 206 -149 b 304 -146 253 -150 278 -149 b 336 -137 315 -144 326 -142 b 371 -103 354 -132 365 -121 b 381 -62 375 -90 378 -76 b 392 25 386 -33 390 -4 b 394 92 393 47 394 69 b 392 129 393 104 392 117 b 389 279 390 179 390 229 b 388 471 389 343 389 407 b 390 628 386 524 386 576 b 394 897 397 718 396 808 b 386 975 393 924 392 949 b 329 1038 379 1007 361 1029 b 292 1047 317 1040 304 1044 b 250 1053 279 1050 264 1051 b 139 1054 214 1053 176 1053 b 104 1047 126 1054 115 1051 b 79 1021 92 1043 83 1033 b 71 960 75 1001 71 981 b 71 947 71 956 69 951 b 92 924 74 936 81 926 b 114 919 99 921 107 919 b 164 921 131 919 147 921 b 199 922 175 922 188 922 z "},"|":{"ha":201,"x_min":0,"x_max":0,"o":"m 85 -83 b 126 -83 99 -87 113 -87 b 147 -74 135 -82 140 -79 b 167 -36 158 -65 164 -51 b 172 7 168 -22 172 -8 b 172 85 172 33 172 58 b 171 222 171 131 169 178 b 169 404 172 283 171 344 b 169 611 168 474 169 542 b 174 799 169 674 169 736 b 174 892 175 829 174 861 b 171 935 174 906 172 921 b 171 956 171 942 172 947 b 156 1004 169 972 165 989 b 131 1022 150 1014 142 1019 b 75 1013 113 1025 93 1024 b 49 965 58 1003 50 986 b 49 951 49 961 49 956 b 38 843 47 915 43 879 b 33 807 36 831 35 818 b 33 778 33 797 31 788 b 35 736 35 764 35 749 b 33 685 33 719 33 701 b 28 479 32 617 29 549 b 31 281 28 414 29 346 b 32 176 31 244 31 211 b 38 53 33 136 36 94 b 40 -3 39 35 39 15 b 53 -57 42 -21 46 -37 b 85 -83 58 -71 68 -79 z "},"<":{"ha":419,"x_min":0,"x_max":0,"o":"m 336 215 b 378 290 356 238 368 260 b 354 329 375 307 367 319 b 328 347 346 335 336 342 b 224 410 293 368 258 389 b 182 436 210 419 194 426 b 186 446 181 442 183 443 b 192 449 189 447 190 447 b 358 539 250 475 304 507 b 383 564 368 544 378 553 b 389 600 389 575 392 588 b 376 635 388 613 383 625 b 350 671 368 647 358 660 b 343 679 349 674 346 676 b 313 685 335 686 324 690 b 290 674 304 682 297 678 b 217 624 265 657 240 640 b 156 572 196 607 176 589 b 118 543 143 563 131 551 b 44 475 90 524 68 500 b 26 447 38 468 32 457 b 31 394 17 429 18 411 b 49 376 36 388 42 382 b 142 297 78 349 110 322 b 193 257 158 283 175 271 b 264 208 215 239 239 224 b 321 206 282 197 301 197 b 336 215 326 207 332 211 z "},"'":{"ha":238,"x_min":0,"x_max":0,"o":"m 44 867 b 49 818 44 851 49 833 b 57 763 49 803 50 781 b 58 739 57 756 57 747 b 68 690 63 724 63 706 b 71 682 68 688 71 685 b 85 671 75 676 76 674 b 108 671 93 668 100 668 b 156 699 126 671 147 682 b 157 711 156 704 157 706 b 161 738 161 719 161 728 b 167 761 164 744 167 753 b 178 818 169 781 174 799 b 196 918 185 851 190 886 b 196 944 196 926 196 936 b 161 971 192 958 182 968 b 153 971 157 971 156 971 b 93 974 132 971 114 974 b 76 974 89 974 83 974 b 49 954 63 971 51 965 b 42 932 47 950 42 940 b 44 867 42 908 44 889 z "},"\"":{"ha":460,"x_min":0,"x_max":0,"o":"m 44 867 b 49 818 44 851 49 833 b 57 763 49 803 50 781 b 58 739 57 756 57 747 b 68 690 63 724 63 706 b 71 682 68 688 71 685 b 85 671 75 676 76 674 b 108 671 93 668 100 668 b 156 699 126 671 147 682 b 157 711 156 704 157 706 b 161 738 161 719 161 728 b 167 761 164 744 167 753 b 178 818 169 781 174 799 b 196 918 185 851 190 886 b 196 944 196 926 196 936 b 161 971 192 958 182 968 b 153 971 157 971 156 971 b 93 974 132 971 114 974 b 76 974 89 974 83 974 b 49 954 63 971 51 965 b 42 932 47 950 42 940 b 44 867 42 908 44 889 z m 267 867 b 271 818 267 851 271 833 b 279 763 271 803 272 781 b 281 739 279 756 279 747 b 290 690 285 724 285 706 b 293 682 290 688 293 685 b 307 671 297 676 299 674 b 331 671 315 668 322 668 b 378 699 349 671 369 682 b 379 711 378 704 379 706 b 383 738 383 719 383 728 b 389 761 386 744 389 753 b 400 818 392 781 396 799 b 418 918 407 851 413 886 b 418 944 418 926 418 936 b 383 971 414 958 404 968 b 375 971 379 971 378 971 b 315 974 354 971 336 974 b 299 974 311 974 306 974 b 271 954 285 971 274 965 b 264 932 269 950 264 940 b 267 867 264 908 267 889 z "},":":{"ha":258,"x_min":0,"x_max":0,"o":"m 221 110 b 150 157 204 135 179 150 b 56 136 115 164 83 157 b 24 75 36 119 25 100 b 22 53 22 68 22 60 b 47 -14 18 26 28 4 b 75 -33 56 -22 65 -28 b 135 -46 93 -44 113 -49 b 211 -7 164 -40 189 -26 b 238 57 229 11 236 33 b 221 110 236 76 232 93 z m 221 701 b 150 749 204 726 179 742 b 56 728 115 756 83 750 b 24 667 36 711 25 692 b 22 644 22 660 22 651 b 47 578 18 618 28 596 b 75 558 56 569 65 564 b 135 546 93 547 113 543 b 211 585 164 551 189 564 b 238 649 229 601 236 625 b 221 701 236 668 232 685 z "},";":{"ha":258,"x_min":0,"x_max":0,"o":"m 221 701 b 150 749 204 726 179 742 b 56 728 115 756 83 750 b 24 667 36 711 25 692 b 22 644 22 660 22 651 b 47 578 18 618 28 596 b 75 558 56 569 65 564 b 135 546 93 547 113 543 b 211 585 164 551 189 564 b 238 649 229 601 236 625 b 221 701 236 668 232 685 z m 92 -31 b 69 -62 85 -42 78 -53 b 60 -92 61 -71 58 -81 b 101 -129 64 -111 82 -128 b 146 -118 117 -129 132 -126 b 185 -83 161 -110 175 -97 b 226 7 206 -57 219 -26 b 204 124 233 49 225 88 b 169 151 196 138 185 146 b 126 160 156 157 142 158 b 85 151 113 160 97 158 b 28 92 58 138 39 117 b 76 -15 11 51 25 1 b 97 -21 83 -17 90 -19 b 92 -31 96 -25 94 -28 z "}," ":{"ha":276,"x_min":0,"x_max":0,"o":""},"!":{"ha":339,"x_min":0,"x_max":0,"o":"m 46 764 b 50 665 47 731 49 697 b 56 547 53 625 54 586 b 61 486 57 526 60 507 b 68 418 63 464 65 440 b 74 361 69 399 71 379 b 90 247 79 324 85 285 b 94 226 92 240 93 233 b 119 199 97 213 106 203 b 154 197 132 194 143 193 b 210 225 175 201 194 210 b 232 265 221 238 229 250 b 238 297 235 275 236 286 b 244 356 240 317 242 336 b 253 417 247 376 250 396 b 269 547 257 460 264 504 b 286 683 276 593 282 638 b 299 792 292 719 296 756 b 299 849 300 810 300 829 b 242 913 297 885 278 906 b 229 915 238 914 233 914 b 131 921 196 917 164 918 b 104 919 122 921 113 921 b 56 878 79 915 63 901 b 46 826 50 861 47 844 b 46 764 46 806 46 785 b 46 764 46 764 46 764 z m 68 15 b 121 -29 81 -7 97 -22 b 201 -14 151 -40 178 -35 b 222 10 210 -7 217 1 b 236 100 239 38 246 68 b 200 149 231 121 219 138 b 186 157 196 150 192 154 b 175 161 182 158 179 160 b 110 158 153 167 132 164 b 76 135 96 154 85 146 b 56 67 61 115 56 93 b 68 15 54 50 60 32 z "}}}
